<svg version="1.2" xmlns="http://www.w3.org/2000/svg" viewBox="0 0 500 500" width="500" height="500">
	<title>man-svg</title>
	<style>
		.s0 { fill: #92e3a9 } 
		.s1 { opacity: .7;fill: #ffffff } 
		.s2 { fill: none;stroke: #263238;stroke-linecap: round;stroke-linejoin: round } 
		.s3 { fill: #263238 } 
		.s4 { fill: #263238;stroke: #263238;stroke-linecap: round;stroke-linejoin: round } 
		.s5 { fill: #ffffff;stroke: #263238;stroke-linecap: round;stroke-linejoin: round } 
		.s6 { fill: #8a8a8a;stroke: #263238;stroke-linecap: round;stroke-linejoin: round } 
		.s7 { fill: none;stroke: #ffffff;stroke-linecap: round;stroke-linejoin: round } 
		.s8 { fill: #92e3a9;stroke: #263238;stroke-linecap: round;stroke-linejoin: round } 
	</style>
	<g id="Background_Simple">
		<g id="Layer">
			<path id="Layer" class="s0" d="m-408.7 238.9c-13.2 40-41.5 83.8-83.3 98-63.1 21.5-68.8 73.3-183.3 72.9-17.9 0-34.5-1.9-49.8-5.3q-12.3-2.8-23.5-6.8c-67.9-24.5-105-82.7-110.3-144.9-7-81.9 48.7-123.1 84.9-147.5 36.3-24.3 77.7-114.6 190.3-115.2 17.2-0.1 34.4 1.6 51.1 5.5 38.3 8.8 77.6 29.9 101.3 62.2q2.6 3.6 5.1 7.4c31.9 49.6 35.5 119.3 17.5 173.7z"/>
			<path id="Layer" class="s1" d="m-402.7 238.9c-13.2 40-41.5 83.8-83.3 98-63.1 21.5-68.8 73.3-183.3 72.9-17.9 0-34.5-1.9-49.8-5.3q-12.3-2.8-23.5-6.8c-67.9-24.5-105-82.7-110.3-144.9-7-81.9 48.7-123.1 84.9-147.5 36.3-24.3 77.7-114.6 190.3-115.2 17.2-0.1 34.4 1.6 51.1 5.5 38.3 8.8 77.6 29.9 101.3 62.2q2.6 3.6 5.1 7.4c31.9 49.6 35.5 119.3 17.5 173.7z"/>
		</g>
	</g>
	<g id="Floor">
		<path id="Layer" class="s2" d="m-51.3 389.1h-461.8"/>
	</g>
	<g id="Plants">
		<g id="Layer">
			<g id="Layer">
				<path id="Layer" class="s3" d="m-340.8 339.9c2.1 0.9 7.4 0.8 7.4 0.8 0 0-1.1-3.5-1.2-3.7-1.2-2.4-4.9-6.4-7.8-6-2.2 0.3-3.4 2.5-2.9 4.5 0.5 2 2.6 3.6 4.5 4.4z"/>
				<path id="Layer" class="s3" d="m-339 355.1c2.2 0.3 6.9-1 7.3-1.1 0.7 2.6 1.7 5.2 2.8 7.9q1 2.2 2.1 4.4c-0.4-0.6-0.8-1.2-0.9-1.2-1.7-2.1-6.3-4.9-9.1-3.8-2 0.9-2.5 3.3-1.5 5.1 1 1.8 3.4 2.7 5.4 3 2 0.3 6-0.8 7.1-1.1q0.4 0.9 0.8 1.7c1.4 2.8 2.8 5.5 4 8.1q0.7 1.5 1.3 2.9c-0.4-0.6-0.7-1-0.8-1.1-1.7-2-6.3-4.9-9.1-3.7-2 0.8-2.5 3.2-1.5 5 1 1.9 3.4 2.8 5.4 3.1 1.9 0.2 5.6-0.7 6.9-1.1 0.4 1 0.8 2 1.1 3 0.2 0.6 0.5 1.3 0.7 1.9q0.2 1.1 0.5 2c0.3 1.3 0.6 2.6 0.9 3.9q0.3 1.3 0.6 2.6c-0.5-1-1.4-2.8-1.5-3-1.4-2.2-5.5-5.8-8.4-5.1-2.1 0.6-3 2.8-2.3 4.8 0.7 2 3 3.3 4.9 3.8 2.1 0.7 6.8 0.1 7.4 0q0.4 2.1 0.7 4.1 0.2 1 0.4 1.9h1.8q-0.2-1.1-0.4-2.3-0.4-2.1-1-4.4c0.4-0.2 2.4-1 4.1-2 1.6 1.7 5.5 3.6 6 3.9q-0.8 2-1.6 3.8-0.2 0.5-0.4 1h1.9q0.1-0.1 0.2-0.3 0.8-2 1.6-4.3c0.6 0.1 5.2 1.1 7.4 0.6 1.9-0.4 4.3-1.6 5.2-3.5 0.8-1.9 0-4.2-2-4.9-2.9-0.9-7.2 2.3-8.8 4.4-0.1 0.2-0.9 1.7-1.5 2.6q0.4-0.9 0.7-1.8c0.5-1.2 0.9-2.5 1.3-3.8q0.3-1 0.6-2c0.2-0.7 0.4-1.4 0.6-2.1q0.5-2.4 0.9-5c1.1 0.4 5 1.8 7 1.6 2-0.1 4.5-0.8 5.7-2.6 1.1-1.8 0.7-4.2-1.2-5.2-2.7-1.3-7.5 1.2-9.4 3.1-0.1 0.1-1.3 1.6-2 2.5q0.3-1.6 0.5-3.1c0.4-3 0.6-6 0.9-9q0.2-1.4 0.3-2.8c0.4 0.2 5 1.9 7.2 1.7 2-0.1 4.5-0.9 5.7-2.6 1.1-1.8 0.7-4.2-1.2-5.2-2.7-1.4-7.5 1.2-9.4 3.1-0.1 0.1-1.8 2.3-2.3 2.9 0.3-2.1 0.5-4.1 0.8-6.1q0.6-4.1 1.7-7.9c0.2 0.1 5 1.9 7.3 1.7 2-0.1 4.5-0.9 5.6-2.6 1.1-1.8 0.7-4.2-1.2-5.2-2.6-1.4-7.4 1.2-9.3 3.1-0.2 0.1-2 2.5-2.4 2.9q0.1-0.2 0.2-0.5c0.8-2.7 1.9-5.2 3.1-7.5q1-1.9 2.2-3.7c0.8 0.4 4.7 2.3 6.8 2.4 2 0.1 4.6-0.4 5.9-2 1.3-1.6 1.2-4.1-0.6-5.3-2.5-1.6-7.5 0.4-9.6 2-0.1 0.1-1.2 1.2-2 2 0.4-0.6 0.7-1.1 1.1-1.6 1.2-1.9 2.5-3.6 3.6-5q1-1.3 1.8-2.3c1.1 0 5.3-0.1 7.2-1 1.8-0.8 3.9-2.4 4.3-4.5 0.4-2-0.8-4.1-2.9-4.4-3-0.3-6.6 3.8-7.7 6.3-0.1 0.2-1.2 3.6-1.1 3.6 0 0 0.1 0 0.1 0q-0.9 1-1.8 2.1c-1.2 1.5-2.5 3.1-3.8 5-1.3 1.8-2.7 3.9-3.9 6.2-1.3 2.3-2.5 4.8-3.4 7.5q0 0.1 0 0.1c0-0.8 0-3.3 0-3.5-0.4-2.7-2.6-7.6-5.6-8.1-2.1-0.4-3.9 1.2-4.1 3.3-0.1 2.1 1.4 4.2 2.9 5.6 1.7 1.5 6.3 2.9 6.7 3-0.8 2.6-1.5 5.4-2 8.2q-0.4 2.4-0.7 4.9c0-0.8 0-1.5 0-1.6-0.4-2.6-2.6-7.6-5.6-8.1-2.1-0.4-3.9 1.3-4.1 3.3-0.1 2.1 1.4 4.2 2.9 5.6 1.5 1.3 5.5 2.7 6.5 3q-0.1 0.9-0.2 1.9c-0.4 3-0.7 6-1.2 8.9q-0.2 1.6-0.5 3.1c0-0.7 0-1.2 0-1.3-0.4-2.7-2.6-7.6-5.5-8.2-2.2-0.4-4 1.3-4.1 3.4-0.2 2.1 1.3 4.2 2.8 5.5 1.5 1.3 5.1 2.6 6.4 3-0.3 1-0.5 2-0.7 3-0.2 0.7-0.4 1.4-0.6 2q-0.3 1-0.6 2c-0.5 1.2-0.9 2.5-1.4 3.7q-0.5 1.3-1 2.4c0.2-1 0.5-3 0.5-3.2 0-1.8-0.6-4.6-1.9-6.7q0-0.4 0-0.8c-0.4-2-2.3-3.5-4.4-3-2.9 0.8-4.7 5.9-4.8 8.6-0.1 0.1 0.1 1.8 0.1 2.9q-0.2-0.9-0.4-1.9c-0.3-1.2-0.7-2.5-1-3.9q-0.3-1-0.6-2c-0.2-0.6-0.5-1.3-0.7-2q-0.9-2.4-1.9-4.7c1.1-0.3 5.1-1.3 6.6-2.5 1.6-1.2 3.3-3.2 3.3-5.3 0-2.1-1.7-3.9-3.8-3.7-3 0.4-5.6 5.1-6.1 7.7-0.1 0.2-0.3 2.1-0.3 3.2q-0.7-1.4-1.3-2.8c-1.4-2.7-2.8-5.4-4.2-8q-0.7-1.3-1.3-2.5c0.4-0.1 5.1-1.2 6.9-2.6 1.6-1.2 3.3-3.2 3.3-5.3 0-2.1-1.7-3.9-3.9-3.6-2.9 0.3-5.5 5-6.1 7.7 0 0.2-0.3 2.9-0.3 3.6-0.9-1.8-1.8-3.6-2.7-5.4q-1.7-3.8-2.9-7.6c0.2 0 5.1-1.1 7-2.5 1.6-1.2 3.2-3.2 3.2-5.4 0-2-1.7-3.8-3.8-3.6-3 0.3-5.6 5.1-6.1 7.7-0.1 0.2-0.3 3.2-0.3 3.7q-0.1-0.2-0.2-0.4c-0.8-2.7-1.2-5.4-1.5-8q-0.3-2.2-0.3-4.3c0.9-0.1 5.3-0.7 7-1.8 1.8-1 3.6-2.8 3.9-4.9 0.2-2.1-1.3-4.1-3.4-4.1-3.1 0-6.1 4.5-7 7 0 0.2-0.3 1.6-0.5 2.7 0-0.6-0.1-1.3-0.1-1.9 0.1-2.3 0.2-4.3 0.3-6.2q0.2-1.5 0.3-2.9c0.9-0.6 4.4-3 5.4-4.8 1.1-1.7 1.9-4.1 1.2-6.1-0.8-1.9-3-3-4.9-2-2.7 1.4-3.4 6.7-3 9.4 0.1 0.2 1.1 3.7 1.1 3.7 0 0 0.1 0 0.1-0.1q-0.2 1.3-0.4 2.8c-0.1 1.8-0.3 3.9-0.4 6.2 0 2.3 0 4.7 0.2 7.3 0.2 2.7 0.6 5.4 1.4 8.2q0 0 0 0.1c-0.5-0.8-1.9-2.8-2-3-1.8-2-6.3-4.9-9.1-3.7-2 0.9-2.6 3.2-1.6 5.1 1.1 1.8 3.5 2.7 5.5 3z"/>
				<path id="Layer" class="s3" d="m-279.6 388c0.1 0 1-3.5 1-3.7 0.4-2.7-0.5-8-3.2-9.3-1.9-1-4.1 0.2-4.8 2.1-0.7 2 0.2 4.5 1.3 6.1 1.3 2 5.7 4.8 5.7 4.8z"/>
			</g>
		</g>
		<g id="Layer">
			<g id="Layer">
				<path id="Layer" class="s3" d="m-32.8 362.9c1 0.5 3.4 0.4 3.4 0.4 0 0-0.5-1.6-0.5-1.7-0.6-1.1-2.3-2.9-3.6-2.8-1 0.2-1.6 1.2-1.4 2.1 0.3 0.9 1.2 1.7 2.1 2z"/>
				<path id="Layer" class="s3" d="m-375 380c1.1 0.1 3.2-0.5 3.4-0.6q0.5 1.9 1.3 3.7 0.5 1 1 2c-0.2-0.3-0.4-0.5-0.4-0.5-0.8-1-3-2.3-4.2-1.8-0.9 0.4-1.2 1.5-0.8 2.4 0.5 0.8 1.6 1.2 2.6 1.4 0.9 0.1 2.7-0.4 3.2-0.5q0.2 0.4 0.4 0.8 1 1.8 1.9 3.7 0.3 0.6 0.5 1.3c-0.1-0.3-0.3-0.5-0.3-0.5-0.8-0.9-2.9-2.3-4.2-1.7-0.9 0.4-1.2 1.5-0.7 2.3 0.4 0.9 1.6 1.3 2.5 1.4 0.9 0.1 2.6-0.3 3.2-0.5q0.2 0.7 0.5 1.4c0.1 0.3 0.2 0.6 0.3 0.9q0.1 0.5 0.2 0.9 0.3 0.9 0.5 1.8 0.1 0.6 0.2 1.2c-0.2-0.4-0.6-1.3-0.7-1.4-0.6-1-2.5-2.6-3.8-2.3-1 0.2-1.4 1.3-1.1 2.2 0.3 0.9 1.4 1.5 2.3 1.8 0.9 0.3 3.1 0 3.4 0q0.1 0.9 0.3 1.8 0.1 0.5 0.2 0.9h0.8q-0.1-0.5-0.2-1-0.2-1-0.4-2.1c0.1-0.1 1.1-0.4 1.9-0.9 0.7 0.8 2.5 1.7 2.7 1.8q-0.3 0.9-0.7 1.7-0.1 0.3-0.2 0.5h0.9q0-0.1 0-0.1 0.4-1 0.8-2c0.3 0.1 2.4 0.5 3.4 0.3 0.9-0.2 2-0.7 2.4-1.6 0.4-0.9 0-2-0.9-2.3-1.3-0.4-3.3 1-4.1 2 0 0.1-0.4 0.8-0.6 1.2q0.1-0.4 0.3-0.8 0.3-0.9 0.6-1.8 0.1-0.4 0.3-0.9c0.1-0.3 0.1-0.6 0.2-1q0.3-1.1 0.5-2.2c0.5 0.1 2.2 0.8 3.2 0.7 0.9-0.1 2-0.4 2.6-1.2 0.5-0.8 0.3-2-0.6-2.4-1.2-0.6-3.4 0.5-4.3 1.4 0 0.1-0.6 0.8-0.9 1.1q0.1-0.7 0.2-1.4 0.3-2 0.4-4.1 0.1-0.7 0.2-1.3c0.2 0.1 2.3 0.8 3.3 0.8 0.9-0.1 2.1-0.4 2.6-1.3 0.5-0.8 0.3-1.9-0.5-2.3-1.3-0.7-3.5 0.5-4.4 1.4 0 0-0.8 1.1-1 1.3q0.1-1.4 0.3-2.8 0.3-1.9 0.8-3.6c0.1 0 2.3 0.8 3.4 0.8 0.9-0.1 2-0.4 2.6-1.3 0.5-0.8 0.3-1.9-0.6-2.3-1.2-0.7-3.4 0.5-4.3 1.4-0.1 0-0.9 1.1-1.1 1.3q0.1-0.1 0.1-0.2c0.4-1.2 0.9-2.4 1.4-3.4q0.5-1 1-1.8c0.4 0.2 2.2 1.1 3.2 1.1 0.9 0.1 2.1-0.1 2.7-0.9 0.6-0.7 0.6-1.9-0.3-2.4-1.1-0.8-3.4 0.1-4.4 0.9-0.1 0-0.5 0.5-0.9 0.9q0.2-0.4 0.5-0.7c0.6-0.9 1.1-1.7 1.7-2.4q0.4-0.5 0.8-1c0.5 0 2.5 0 3.3-0.5 0.9-0.3 1.8-1.1 2-2 0.2-1-0.4-1.9-1.4-2-1.3-0.2-3 1.7-3.5 2.8 0 0.1-0.5 1.7-0.5 1.7q0 0 0 0-0.4 0.5-0.8 1c-0.5 0.7-1.1 1.4-1.7 2.3-0.6 0.8-1.3 1.8-1.8 2.8-0.6 1.1-1.2 2.3-1.6 3.5q0 0 0 0.1c0-0.4 0-1.6 0-1.7-0.2-1.2-1.2-3.5-2.6-3.7-1-0.2-1.8 0.6-1.9 1.5 0 1 0.7 2 1.4 2.6 0.7 0.7 2.9 1.4 3.1 1.4q-0.6 1.8-1 3.8-0.2 1.1-0.3 2.2c0-0.3 0-0.7 0-0.7-0.2-1.2-1.2-3.5-2.6-3.8-0.9-0.1-1.8 0.6-1.9 1.6 0 1 0.7 1.9 1.4 2.6 0.7 0.6 2.5 1.2 3 1.3q-0.1 0.5-0.1 0.9-0.3 2.1-0.6 4.1-0.1 0.8-0.2 1.5c0-0.3 0-0.6 0-0.7-0.2-1.2-1.2-3.5-2.6-3.7-0.9-0.2-1.8 0.6-1.9 1.5 0 1 0.7 2 1.4 2.6 0.6 0.6 2.3 1.2 2.9 1.4q-0.2 0.7-0.3 1.4c-0.1 0.3-0.2 0.6-0.3 0.9q-0.1 0.5-0.3 0.9-0.3 0.9-0.6 1.7-0.2 0.6-0.5 1.1c0.1-0.4 0.2-1.4 0.2-1.4 0.1-0.9-0.2-2.2-0.8-3.1q0-0.2 0-0.4c-0.2-0.9-1.1-1.6-2-1.4-1.4 0.4-2.2 2.7-2.3 3.9 0 0.1 0 0.9 0.1 1.4q-0.1-0.4-0.2-0.9-0.2-0.8-0.5-1.8-0.1-0.4-0.3-0.9c0-0.3-0.2-0.6-0.3-0.9q-0.4-1.1-0.9-2.2c0.5-0.1 2.4-0.6 3.1-1.1 0.7-0.6 1.5-1.5 1.5-2.5 0-1-0.8-1.8-1.8-1.7-1.3 0.2-2.5 2.4-2.8 3.6 0 0.1-0.1 0.9-0.1 1.4q-0.3-0.6-0.6-1.3-0.9-1.8-1.9-3.7-0.3-0.5-0.6-1.1c0.1 0 2.3-0.6 3.2-1.2 0.7-0.5 1.5-1.5 1.5-2.4 0-1-0.8-1.8-1.8-1.7-1.4 0.1-2.6 2.3-2.8 3.5 0 0.1-0.2 1.4-0.2 1.7q-0.6-1.2-1.2-2.5-0.8-1.7-1.4-3.5c0.1 0 2.4-0.5 3.3-1.2 0.7-0.5 1.5-1.4 1.5-2.4-0.1-1-0.8-1.8-1.8-1.7-1.4 0.1-2.6 2.3-2.8 3.6-0.1 0-0.2 1.4-0.2 1.7q0-0.1-0.1-0.2c-0.3-1.3-0.5-2.5-0.7-3.7q-0.1-1-0.1-2c0.4-0.1 2.4-0.3 3.3-0.8 0.8-0.5 1.6-1.3 1.7-2.3 0.1-1-0.6-1.9-1.6-1.9-1.3 0-2.8 2.1-3.1 3.2-0.1 0.1-0.2 0.8-0.3 1.3q0-0.5 0-0.9c0-1 0.1-2 0.1-2.8q0.1-0.8 0.2-1.4c0.4-0.2 2-1.4 2.5-2.2 0.4-0.8 0.8-1.9 0.5-2.8-0.4-0.9-1.4-1.4-2.3-0.9-1.2 0.6-1.5 3.1-1.3 4.3 0 0.1 0.4 1.7 0.5 1.7q0 0 0 0-0.1 0.6-0.2 1.2c-0.1 0.9-0.1 1.9-0.2 2.9 0 1.1 0 2.2 0.1 3.4 0.1 1.2 0.3 2.5 0.6 3.8q0.1 0 0.1 0c-0.3-0.3-0.9-1.3-1-1.4-0.8-0.9-2.9-2.2-4.2-1.7-0.9 0.4-1.1 1.5-0.7 2.4 0.5 0.8 1.6 1.2 2.5 1.4z"/>
				<path id="Layer" class="s3" d="m-70.2 404.5c0 0 0.4-1.7 0.4-1.8 0.2-1.2-0.2-3.7-1.4-4.3-0.9-0.4-1.9 0.1-2.3 1-0.3 1 0.1 2.1 0.6 2.9 0.6 0.9 2.7 2.2 2.7 2.2z"/>
			</g>
		</g>
	</g>
	<g id="Clouds">
		<g id="Layer">
			<path id="Layer" fill-rule="evenodd" class="s2" d="m-162.7 70.3c-6 3.5-8.3 10.4-9.4 13.7-1.5 4.5-6.8-3.1-17.4 0.7-10.6 3.8-12.1 12.1-14.4 14.4-2.3 2.3-17.4 8.3-17.4 8.3h151.9"/>
			<path id="Layer" fill-rule="evenodd" class="s2" d="m-66.8 141.4h18.4c0 0 3-16.6-3.8-25-6.8-8.3-21.9 3.8-26.5-8.3 0 0-13.6-19.7-30.3-21.2-16.6-1.5-23.4 11.4-28.7 18.2-5.3 6.8-8.4-3-21.2-3"/>
			<path id="Layer" fill-rule="evenodd" class="s2" d="m-26.5 101.9c-3.1 2.9-3.5 6.7-3.5 6.7"/>
			<path id="Layer" fill-rule="evenodd" class="s2" d="m-289.7 83.9c0 0-10.6-10.6-22.7-9.8-12.1 0.7-7.6 15.1-12.9 19.7-5.3 4.5-11.4-1.5-18.2 0.7"/>
		</g>
		<g id="Layer">
			<path id="Layer" fill-rule="evenodd" class="s2" d="m-134.6 102.6c-3.9 2.3-5.4 6.8-6.1 8.9-1 3-4.5-2-11.4 0.5-6.9 2.5-7.9 7.9-9.4 9.4-1.5 1.5-11.4 5.4-11.4 5.4h99.3"/>
			<path id="Layer" fill-rule="evenodd" class="s2" d="m-67.7 126.8h12.1c0 0 1.9-10.8-2.5-16.3-4.5-5.4-14.3 2.5-17.3-5.4 0 0-8.9-12.9-19.8-13.9-10.9-1-15.3 7.4-18.8 11.9-3.5 4.4-5.4-2-13.9-2"/>
			<path id="Layer" fill-rule="evenodd" class="s2" d="m-122.2 149c-2 1.9-2.3 4.4-2.3 4.4"/>
			<path id="Layer" fill-rule="evenodd" class="s2" d="m-71.4 112.5c0 0-6.9-6.9-14.8-6.4-8 0.5-5 9.9-8.4 12.9-3.5 2.9-7.5-1-11.9 0.5"/>
		</g>
		<g id="Layer">
			<path id="Layer" fill-rule="evenodd" class="s2" d="m-69.4 156.4c-2.8 1.6-3.8 4.8-4.3 6.3-0.7 2-3.1-1.4-8 0.3-4.8 1.7-5.5 5.5-6.5 6.6-1 1-7.9 3.7-7.9 3.7h69.2"/>
			<path id="Layer" fill-rule="evenodd" class="s2" d="m-34.5 167.3h8.4c0 0 1.4-7.5-1.7-11.3-3.1-3.8-10 1.7-12.1-3.8 0 0-6.2-9-13.8-9.7-7.6-0.7-10.7 5.2-13.1 8.3-2.4 3.1-3.8-1.4-9.6-1.4"/>
			<path id="Layer" fill-rule="evenodd" class="s2" d="m287.4 156.2c-1.4 1.3-1.6 3-1.6 3"/>
			<path id="Layer" fill-rule="evenodd" class="s2" d="m-38.3 167.3c0 0-4.8-4.9-10.3-4.5-5.5 0.3-3.5 6.9-5.9 9-2.4 2-5.1-0.7-8.2 0.3"/>
		</g>
	</g>
	<g id="Text_1_">
		<g id="Layer">
			<path id="Layer" fill-rule="evenodd" class="s4" d="m-207.4 320.9v-41.7h-50.7v-24.7l44.2-103.4h33.7v105h17.4v23.1h-17.4v41.7zm-26.4-64.8h26.4v-73.7z"/>
			<path id="Layer" fill-rule="evenodd" class="s4" d="m-209.2 337.4q-14.9 0-24.7-6.3-9.7-6.3-14.6-17.4-5-11.1-5-25.5v-75.3q0-14.8 4.7-26.1 4.8-11.2 14.5-17.5 9.8-6.2 25.1-6.2 15.3 0 25 6.2 9.7 6.3 14.5 17.5 4.7 11.3 4.7 26.1v75.3q0 14.4-5 25.5-4.9 11.1-14.6 17.4-9.8 6.3-24.6 6.3zm0-24.9q6.4 0 9.6-4 3.1-4 4.2-9.6 1-5.7 1-11.2v-74.4q0-5.8-0.9-11.6-1-5.7-4.1-9.7-3.1-4-9.8-4-6.8 0-9.9 4-3.1 4-4.1 9.7-0.9 5.8-0.9 11.6v74.4q0 5.5 1.1 11.2 1.2 5.6 4.3 9.6 3.2 4 9.5 4z"/>
			<path id="Layer" fill-rule="evenodd" class="s4" d="m-216.9 249.9v-41.7h-50.7v-24.7l44.2-103.4h33.8v105h17.4v23.1h-17.4v41.7zm-26.4-64.8h26.4v-73.7z"/>
		</g>
		<g id="Layer">
			<path id="Layer" fill-rule="evenodd" class="s5" d="m-235.8 347.9v-41.7h-50.7v-24.7l44.2-103.4h33.8v105h17.4v23.1h-17.4v41.7zm-26.4-64.8h26.4v-73.7z"/>
			<path id="Layer" fill-rule="evenodd" class="s5" d="m-614.6 322.4q-14.9 0-24.6-6.3-9.8-6.3-14.7-17.4-4.9-11.1-4.9-25.5v-75.3q0-14.8 4.7-26.1 4.7-11.2 14.4-17.5 9.8-6.2 25.1-6.2 15.3 0 25 6.2 9.8 6.3 14.5 17.5 4.7 11.3 4.7 26.1v75.3q0 14.4-4.9 25.5-4.9 11.1-14.7 17.4-9.7 6.3-24.6 6.3zm0-24.9q6.5 0 9.6-4 3.2-4 4.2-9.6 1.1-5.7 1.1-11.2v-74.4q0-5.8-1-11.6-0.9-5.7-4.1-9.7-3.1-4-9.8-4-6.7 0-9.9 4-3.1 4-4 9.7-1 5.8-1 11.6v74.4q0 5.5 1.2 11.2 1.1 5.6 4.3 9.6 3.1 4 9.4 4z"/>
			<path id="Layer" fill-rule="evenodd" class="s5" d="m-251.2 350.9v-41.7h-50.7v-24.7l44.2-103.4h33.7v105h17.4v23.1h-17.4v41.7zm-26.4-64.8h26.4v-73.7z"/>
		</g>
		<g id="Layer">
			<path id="Layer" fill-rule="evenodd" class="s3" d="m-297.5 190.9q-3.5 0-5.6-1.3-2.1-1.3-3-3.7-0.9-2.5-0.9-5.9v-12.4q0-3.4 0.9-5.8 0.9-2.4 3-3.7 2.1-1.2 5.6-1.2 3.6 0 5.7 1.2 2.1 1.3 3 3.7 0.9 2.4 0.9 5.8v12.5q0 3.3-0.9 5.7-0.9 2.5-3 3.8-2.1 1.3-5.7 1.3zm0-4.4q1.5 0 2.3-0.7 0.7-0.6 0.9-1.8 0.3-1.1 0.3-2.5v-15.3q0-1.4-0.3-2.5-0.2-1.1-0.9-1.8-0.8-0.6-2.3-0.6-1.4 0-2.2 0.6-0.7 0.7-0.9 1.8-0.3 1.1-0.3 2.5v15.3q0 1.4 0.2 2.5 0.3 1.2 1 1.8 0.7 0.7 2.2 0.7z"/>
			<path id="Layer" fill-rule="evenodd" class="s3" d="m-292.4 184.9q-3.5 0-5.6-1.3-2.1-1.3-3-3.7-0.9-2.5-0.9-5.9v-12.4q0-3.4 0.9-5.8 0.9-2.4 3-3.7 2.1-1.2 5.6-1.2 3.7 0 5.7 1.2 2.1 1.3 3 3.7 1 2.4 1 5.8v12.5q0 3.3-1 5.7-0.9 2.5-3 3.8-2 1.3-5.7 1.3zm0-4.4q1.6 0 2.3-0.7 0.7-0.6 0.9-1.8 0.3-1.1 0.3-2.5v-15.3q0-1.4-0.3-2.5-0.2-1.1-0.9-1.8-0.7-0.6-2.3-0.6-1.4 0-2.1 0.6-0.8 0.7-1 1.8-0.3 1.1-0.3 2.5v15.3q0 1.4 0.3 2.5 0.2 1.2 0.9 1.8 0.8 0.7 2.2 0.7z"/>
			<path id="Layer" fill-rule="evenodd" class="s3" d="m-303.3 199.5v-33.3h9.8q3 0 4.9 1.1 1.8 1.1 2.7 3.3 0.9 2.1 0.9 5.1 0 3.2-1.1 5.2-1.1 2-3.1 2.9-2 0.9-4.7 0.9h-3.3v14.8c0 0-6.1 0-6.1 0zm6.1-19.1h2.3q1.6 0 2.6-0.4 0.9-0.5 1.2-1.6 0.4-1 0.4-2.8 0-1.8-0.3-2.9-0.2-1.1-1.1-1.7-0.9-0.5-2.8-0.5h-2.3z"/>
			<path id="Layer" class="s3" d="m-282.4 184.9q-3 0-5-1.1-2-1.2-3.1-3.5-1-2.2-1.1-5.5l5.2-1q0.1 1.9 0.5 3.4 0.4 1.5 1.2 2.3 0.8 0.8 2.1 0.8 1.5 0 2.1-0.9 0.6-0.9 0.6-2.3 0-2.1-1-3.5-1-1.4-2.6-2.8l-4.2-3.7q-1.8-1.5-2.8-3.4-1.1-1.9-1.1-4.6 0-4 2.3-6.1 2.3-2.1 6.3-2.1 2.4 0 3.9 0.7 1.6 0.7 2.5 2 0.9 1.2 1.4 2.9 0.4 1.6 0.6 3.4l-5.2 0.9q-0.1-1.6-0.4-2.8-0.2-1.2-0.9-1.9-0.7-0.7-2-0.7-1.4 0-2.1 0.9-0.7 0.8-0.7 2.2 0 1.6 0.7 2.7 0.7 1.1 2 2.3l4.2 3.6q2 1.7 3.5 4.1 1.4 2.3 1.4 5.6 0 2.4-1 4.2-1.1 1.8-2.9 2.9-1.9 1-4.4 1z"/>
			<path id="Layer" class="s3" d="m-346.4 183.5v-5.4h5.5v5.4zm1.7-7.8l-1.7-25.4h5.6l-2 25.4z"/>
		</g>
	</g>
	<g id="Suitcase">
		<g id="Layer">
			<path id="Layer" class="s4" d="m-384.8 407.5v7.1h3.7v-4.1c0-1.9 1.5-3.4 3.3-3.4h12.3c1.8 0 3.3 1.5 3.3 3.4v4.1h3.7v-7.1c0-1.8-1.5-3.3-3.3-3.3h-19.7c-1.8 0-3.3 1.5-3.3 3.3z"/>
			<path id="Layer" class="s4" d="m-497.5 452.7h-70.6c-2.6 0-4.7 2.1-4.7 4.7v56.7c0 1.7 1.4 3 3 3h73.9c1.7 0 3.1-1.3 3.1-3v-56.7c0-2.6-2.1-4.7-4.7-4.7z"/>
			<path id="Layer" class="s6" d="m-487.8 458.7h-70.5c-2.6 0-4.7 2.1-4.7 4.7v56.7c0 1.7 1.3 3 3 3h73.9c1.7 0 3-1.3 3-3v-56.7c0-2.6-2.1-4.7-4.7-4.7z"/>
		</g>
	</g>
	<g id="Character">
		<g id="Layer">
			<g id="Layer">
				<path id="Layer" class="s4" d="m410 262.2c0 0-20.1 60.4-21.8 71.3-1.8 10.9-0.7 24.5 0.4 31.4 1 6.8 11.7 66.1 11.7 66.1 0 0-2.6-0.8-2.8 1.1-0.2 1.9 0.5 10 0.5 10 0 0-2.8 3.9-10.1 8.1-7.3 4.3-10.9 5.5-8.7 6.9 2.2 1.4 11.5 1.9 15.3 1.3 3.8-0.5 14.1-1.7 15.7-2 1.7-0.3 6.8 0.8 8.4-2.1 1.6-2.9 0.4-11.7 0.8-14.9 0.4-3.1-1.8-8-1.9-8.8 0-0.7-2-67.7-2-67.7l1.3-16.7c0 0-0.4 15.9 1.4 17.7 1.9 1.7 20.9 67.9 20.9 67.9l-1.9 2.9 2.3 6.4-1.8 4.1c0 0-8.6 8.1-12.2 10.1-3.5 2-7.1 2.6-5.1 4.2 1.9 1.6 21 0.7 21 0.7l20-4.1c0 0 3-3.4 2.5-6.2-0.6-2.9-3.2-13.1-3.2-13.1 0 0 0.6-13.4-0.1-13.9-0.7-0.4-4.4-5.4-4.7-7.3-0.3-1.9-2.4-39.3-4.6-45.6-2.2-6.3-4.9-16.1-4.9-16.1 0 0 1.6-1.6 1.7-3.3 0.1-1.7-0.4-4.7-0.4-4.7 0 0 20.8-54.3 21.8-57.5 1-3.1 5.3-19.8 5.3-26.5 0-6.7-0.5-11.7-0.5-11.7 0 0-16.3 7.4-32.8 8.1-16.4 0.8-31-0.2-31-0.2z"/>
				<g id="Layer">
					<path id="Layer" fill-rule="evenodd" class="s7" d="m459.9 264.3c0 0 0 16.3 8.2 19.4"/>
					<path id="Layer" fill-rule="evenodd" class="s7" d="m471.7 259.5c0 0 0.4 11-1.7 20.8"/>
					<path id="Layer" fill-rule="evenodd" class="s7" d="m456.1 309.3c-2.3 4.8-4 8.5-4 8.8"/>
					<path id="Layer" fill-rule="evenodd" class="s7" d="m466.9 286.5c0 0-5.2 11-9.5 20"/>
					<path id="Layer" class="s7" d="m418.9 331.3l8.8-37.8-9.3-8.2"/>
					<path id="Layer" class="s7" d="m416.9 339.5l1-3.9"/>
				</g>
			</g>
			<g id="Layer">
				<path id="Layer" class="s8" d="m371.1 175.6l-24 10.4c0 0 14.3-29.7 14.9-31.4 0.6-1.8-7.9-16.4-7.7-17 0.2-0.6 7.5-9.5 7.7-11.4 0.2-1.9 4.2-8.7 1.2-9.1-3.1-0.4-19.5 14.9-19.9 18.7-0.4 3.9 7.3 17 8.1 18.2 0.8 1.1-39.8 44.6-40.5 51.5-0.8 7 2.5 11.4 8.3 12.2 5.7 0.7 51.3-14.9 58.2-16.8 7-2 9.3 1.1 9.3 1.1 0 0 21.8 26.5 23.4 29.8 1.5 3.2 0.7 15.4-1 19.1-1.7 3.6-3.7 10-2.7 11 1 0.9 1.7 2.1 4.6 2.9 2.9 0.8 23 3.2 34.4 1.5 11.4-1.7 24.9-7.7 28-10 3-2.3 3.4-5.1 3.4-8.5 0-3.5-2.3-6.6-3.8-10.1-1.6-3.4-11.8-35.3-16-45.5-4.3-10.2-2.9-18-19-27-16-9.1-34.8-7.2-34.8-7.2z"/>
				<g id="Layer">
					<g id="Layer">
						<path id="Layer" class="s2" d="m346.2 200.6l-0.2 3"/>
						<path id="Layer" class="s2" d="m341 205.3l6.1-19.3-0.8 12.3"/>
						<path id="Layer" fill-rule="evenodd" class="s2" d="m340.4 168.8c0 0 1 7.4 10.4 7.8"/>
						<path id="Layer" class="s5" d="m384.6 200.3c0 0-7-4.6-14.1-6.9"/>
						<path id="Layer" fill-rule="evenodd" class="s2" d="m368.4 195.8q-1.2-0.2-2.3-0.3"/>
						<path id="Layer" fill-rule="evenodd" class="s2" d="m382.1 198.9c0 0-4.9-1.4-11-2.6"/>
					</g>
					<path id="Layer" fill-rule="evenodd" class="s2" d="m417.5 238.4c0.6 0.5 1.1 0.9 1.2 0.9"/>
					<path id="Layer" fill-rule="evenodd" class="s2" d="m410.1 231.8c0 0 3.4 3.1 5.9 5.3"/>
					<path id="Layer" class="s2" d="m451.7 265.1l17.2-10.8"/>
					<path id="Layer" fill-rule="evenodd" class="s2" d="m461.5 223c-1.9 7.9-5.7 21.2-10.1 27.7"/>
					<path id="Layer" fill-rule="evenodd" class="s2" d="m462.9 216.9c0 0-0.2 1.2-0.7 3.1"/>
					<path id="Layer" fill-rule="evenodd" class="s2" d="m462.9 227.1c0 0-3.6 16-6.5 20.5"/>
				</g>
			</g>
			<g id="Layer">
				<path id="Layer" class="s5" d="m357.2 165c2.5-5.4 4.6-9.8 4.8-10.4 0.6-1.8-7.9-16.4-7.7-17 0.2-0.6 7.5-9.5 7.7-11.4 0.2-1.9 4.2-8.7 1.2-9.1-3.1-0.4-19.5 14.9-19.9 18.7-0.4 3.9 7.3 17 8.1 18.2 0.2 0.2-1.5 2.4-4.3 5.6 1.1 2.7 3.7 6 10.1 5.4z"/>
				<path id="Layer" fill-rule="evenodd" class="s2" d="m353.8 127.2c0 0-4.8 9.4-4.6 10.1"/>
				<path id="Layer" fill-rule="evenodd" class="s2" d="m350.2 127.4c0 0-5.5 7.8-5.1 9"/>
			</g>
			<g id="Layer">
				<path id="Layer" class="s6" d="m391.7 197.4l7.7 15.6 3.7 0.2 3.1-17.5-2.5-4.1-1.8 11-4.6-0.2-5.4-8.1z"/>
				<path id="Layer" class="s6" d="m399.4 213l-6.4 46.6 7.4 15.6 8-16.2-5.3-45.8z"/>
				<g id="Layer">
					<path id="Layer" class="s3" d="m398.3 210.7l5.9-3.8 1.8-10.4-3.4 2.2-0.7 3.9-4.6-0.2-0.1-0.2-2.4 1.5z"/>
					<path id="Layer" class="s3" d="m403.1 213.2h-0.1z"/>
				</g>
				<g id="Layer">
					<path id="Layer" class="s3" d="m404.7 227l-7.9 5-1.4 10.1 10.3-6.5z"/>
					<path id="Layer" class="s3" d="m404.1 221.8l-1-8.6h-0.1l-3.9 2.6-1.4 10.1z"/>
					<path id="Layer" class="s3" d="m406.3 240.8l-11.7 7.4-1.4 10.1 14.1-8.9z"/>
					<path id="Layer" class="s3" d="m405.2 265.5l3.2-6.5-0.5-4.4-13.3 8.4 3.4 7.1z"/>
				</g>
			</g>
			<path id="Layer" class="s8" d="m386.3 179.5c0 0-1.5 9.4-1.3 13.7 0.2 4.2 2.3 11.7 2.3 11.7l9.4-10.8 15.9 9.9c0 0-0.6-20.1-0.6-20.7 0-0.6-3.7-22.2-4.8-24.3-1.2-2.1-4.3-3.3-6-2.9-1.8 0.4-14.9 23.4-14.9 23.4z"/>
			<g id="Layer">
				<g id="Layer">
					<path id="Layer" class="s5" d="m359.7 126.7c0 0-0.5 14.2-0.2 19.8 0.3 5.7-0.5 10.2 1 14.8 1.5 4.7 3.1 13.7 4.6 16.7 1.5 3 4.7 5.8 9.4 5.8 4.6 0 9.8-3.8 12.3-6.3 2.5-2.5 6.8-6 9.1-10.5 2.3-4.5 0.3-15.8 0.7-19 0.3-3.1 1-8.6 1-8.6 0 0 3.3-8.2 0.6-12-2.6-3.8-14.4-8.1-23.4-7.3-9 0.8-15.1 6.6-15.1 6.6z"/>
					<path id="Layer" fill-rule="evenodd" class="s2" d="m367.5 142.7l1.3 5c0 0-4 11.6-3 12.3 1 0.7 9.2-0.2 9.2-0.2"/>
					<path id="Layer" class="s4" d="m374 137.5c0 0-0.2 1.9 0.5 2.2 0.6 0.3 7.1 2.8 8.1 2.5 1-0.3-0.3-1.7-1.2-2-0.8-0.3-7.8-4.1-7.4-2.7z"/>
					<path id="Layer" class="s4" d="m367.5 140.2c0 0-5.3 3-6.3 3.2-1 0.1 0.6-2 0.6-2 0 0 4-4.5 5-3.9 1 0.7 0.7 2.7 0.7 2.7z"/>
					<path id="Layer" fill-rule="evenodd" class="s2" d="m376 146.9c0 0 2.8 3 6.6 0.6"/>
					<path id="Layer" fill-rule="evenodd" class="s2" d="m362.2 148.2c0 0 2.6 1.7 5.3-1"/>
				</g>
				<path id="Layer" class="s4" d="m396.6 148c0.3-2.8 0.9-7.6 1-8.5l-3.3-1.8c0 0 0.9 12.3-0.4 19.1-1.3 6.9-3.6 9-6.3 10-2.7 1-4-0.3-4-0.3 0 0-6.3-6-12-6.2-4.9-0.1-8.7 5.3-9.6 6.7 1.1 4.3 2.1 9 3.1 11 1.5 3 4.7 5.8 9.4 5.8 4.6 0 9.8-3.8 12.3-6.3 2.5-2.5 6.8-6 9.1-10.5 2.3-4.5 0.3-15.8 0.7-19z"/>
				<path id="Layer" class="s5" d="m379.6 171.5c0 0-3.5-5-6.8-5.8-3.3-0.9-6.8 5.6-5.7 6.8 1.2 1.1 2.9-3.2 6-1.9 3.2 1.4 5 3.5 6.5 0.9z"/>
				<path id="Layer" class="s4" d="m359.2 117.9c0 0-5-1.5-8.2 0.2-3.2 1.7-4.6 5.3-4.6 5.3l6.4 0.5 3 1.5c0 0-1.3 0-2 1.8-0.6 1.9-1.1 4-1.1 4 0 0 2.3-1.3 6-1.8 3.6-0.5 10.8-2.7 10.8-2.7l0.8 5.5c0 0 4.2-2.6 7.5-3.6 3.3-1 5.3-3.2 5.3-3.2 0 0 8.7 3.3 8.5 4.8-0.2 1.5-3.2 5.2-2.2 6.4 1 1.1 3.7 3.6 3.7 3.6l10 5.7c0 0 3.6-5.7 5.5-14.7 1.8-9-6.5-18.6-13.5-21.3-7-2.6-12.2-1.6-16.5-1.5-4.3 0.2-10.3-1.1-10.3-1.1l4 4.1c0 0-3.8 1.5-5.5 1.9-1.7 0.3-4.5 1.1-5.1 0.8-0.7-0.3-3-1.8-3-1.8 0 0-1.2 5 0.5 5.6z"/>
				<path id="Layer" class="s5" d="m399.2 155c0 0 2.5-1.3 3.9-3.3 1.3-2 5.1-9.7 0.6-11.8-3.4-1.7-5.6 1.3-6.5 2.8-0.2 1.7-0.5 3.8-0.6 5.3-0.4 3.2 1.6 14.5-0.7 19-2.3 4.5-6.6 8-9.1 10.5-1 0.9-2.3 2.1-3.9 3.1l4.2 1.2c0 0 1.3 4.1 5 8.8 3.6 4.7 6.8 7.7 6.8 7.7 0 0 1-6 3.7-19.3 2.6-13.3 0.6-21 0.6-21z"/>
				<path id="Layer" class="s4" d="m387.1 181.8l5.8 1.7-2.8 4.1c0 0-2.3-3.8-3-5.8z"/>
			</g>
			<g id="Layer">
				<path id="Layer" class="s8" d="m422.2 177.3l4.8 120.7 10.8 0.7c0 0 9.3-39 12-52.3 2.7-13.3 3.7-21.8 3.5-32.4-0.2-10.6-2.7-32.6-2.7-32.6 0 0-5.6-9.5-10.4-12.8"/>
				<path id="Layer" fill-rule="evenodd" class="s2" d="m444.2 199.9c1-3.2 1.6-5.2 1.6-5.2"/>
				<path id="Layer" fill-rule="evenodd" class="s2" d="m425.1 247.2c0 0 4.6-10.8 10-22.8 3-6.5 5.9-14.7 7.9-20.9"/>
				<path id="Layer" fill-rule="evenodd" class="s2" d="m437.9 230.9q-0.4 1.2-0.8 2"/>
				<path id="Layer" fill-rule="evenodd" class="s2" d="m443.6 208.8c0 0-2.3 11.3-4.6 18.8"/>
				<path id="Layer" class="s2" d="m427 287.3l13 0.6"/>
			</g>
			<g id="Layer">
				<path id="Layer" class="s5" d="m427 298c0 0-1.5 18.6-1.5 20.2 0 1.6 1.3 13.3 1.6 14.3 0.4 1 8.6 7.1 9.4 7.1 0.8 0 5.3 0.5 6.1-0.8 0.8-1.3 1.1-2.1 0-2.4-1.1-0.4-4.2-0.2-4.2-0.2l-1.8-0.8c0 0 6.6-0.6 7.1-0.8 0.5-0.2 2.9-1.8 3.4-2.9 0.5-1.1-0.3-2.4-0.3-2.4 0 0 2.4-2.3 2.5-3.1 0.2-0.8 0.4-3-0.8-2.7-1.1 0.3-2.7 2.1-2.7 2.1h-4c0 0 4.2-2.8 4.7-3.6 0.4-0.8 1.1-4.1 0.9-5.1-0.1-1-2.2 0.2-2.7 1.1-0.5 1-1.3 3.6-1.3 3.6l-4.8 0.6-1.6-2.1c0 0 3.2-10 3.2-12.1 0-2-2.4-9.3-2.4-9.3z"/>
				<path id="Layer" fill-rule="evenodd" class="s2" d="m432.9 322.4c0 0 3.6 3 4.5 3.3 1 0.4 4.4-0.1 4.4-0.1"/>
				<path id="Layer" fill-rule="evenodd" class="s2" d="m430.8 325.9c0 0 5.5 4.8 7 4.8 1.4 0 9-1.4 9-1.4"/>
				<path id="Layer" fill-rule="evenodd" class="s2" d="m429.7 330.1c0 0 3.2 3.9 4.2 4.2 1 0.3 2.7 1.1 2.7 1.1"/>
			</g>
		</g>
	</g>
</svg>