<svg version="1.2" xmlns="http://www.w3.org/2000/svg" viewBox="0 0 500 500" width="500" height="500">
	<title>updateBlog-svg</title>
	<style>
		.s0 { fill: #ebebeb } 
		.s1 { fill: #e0e0e0 } 
		.s2 { fill: none } 
		.s3 { fill: #ffffff } 
		.s4 { fill: #263238 } 
		.s5 { fill: #e8505b } 
		.s6 { fill: #8f9390 } 
		.s7 { fill: #353836 } 
		.s8 { fill: #2e2e2e } 
		.s9 { fill: #455a64 } 
		.s10 { fill: #ffbe9d } 
		.s11 { fill: #eb996e } 
		.s12 { fill: #848282 } 
		.s13 { fill: #464343 } 
		.s14 { fill: #000000 } 
		.s15 { fill: #7bbe9b } 
		.s16 { fill: #313633 } 
	</style>
	<g id="Background_Complete">
		<g id="Layer">
			<g id="Layer">
				<path id="Layer" class="s0" d="m413.2 247.4c0 5.2-4.2 9.4-9.4 9.4-5.2 0-9.5-4.2-9.5-9.4 0-5.3 4.3-9.5 9.5-9.5 5.2 0 9.4 4.2 9.4 9.5z"/>
			</g>
			<g id="Layer">
				<path id="Layer" class="s0" d="m382.9 254.5c-4 3.9-10.3 3.9-14.3 0-3.9-4-3.9-10.3 0-14.3 4-3.9 10.3-3.9 14.3 0 3.9 4 3.9 10.3 0 14.3z"/>
			</g>
			<g id="Layer">
				<path id="Layer" class="s0" d="m354.2 240.2c-5.9 0-10.7-4.7-10.7-10.6 0-5.9 4.8-10.7 10.7-10.7 5.9 0 10.7 4.8 10.7 10.7 0 5.9-4.8 10.6-10.7 10.6z"/>
			</g>
			<g id="Layer">
				<path id="Layer" class="s0" d="m360.8 204.2c-1.1 6-6.8 10.1-12.9 9-6.1-1.1-10.1-6.9-9-13 1.1-6 6.9-10.1 12.9-9 6.1 1.1 10.1 6.9 9 13z"/>
			</g>
			<g id="Layer">
				<path id="Layer" class="s0" d="m363.5 189.8c-6.4 0-11.5-5.2-11.5-11.5 0-6.4 5.1-11.6 11.5-11.6 6.4 0 11.5 5.2 11.5 11.6 0 6.3-5.1 11.5-11.5 11.5z"/>
			</g>
			<g id="Layer">
				<path id="Layer" class="s0" d="m394.6 180.4c-6.4 2.7-13.8-0.3-16.4-6.7-2.7-6.4 0.3-13.8 6.7-16.5 6.4-2.6 13.7 0.4 16.4 6.8 2.7 6.4-0.3 13.7-6.7 16.4z"/>
			</g>
			<g id="Layer">
				<path id="Layer" class="s0" d="m433.5 231.4c-1.1 4.9-6 8-11 6.8-4.9-1.1-7.9-6-6.7-11 1.1-4.9 6-7.9 10.9-6.7 4.9 1.1 8 6 6.8 10.9z"/>
			</g>
			<g id="Layer">
				<path id="Layer" class="s0" d="m432.5 209.8c-4.4 1.7-9.2-0.5-10.9-4.8-1.7-4.4 0.5-9.3 4.9-11 4.3-1.6 9.2 0.5 10.9 4.9 1.7 4.4-0.5 9.3-4.9 10.9z"/>
			</g>
			<g id="Layer">
				<path id="Layer" class="s0" d="m423 179.2c-0.6 4.2-4.6 7.1-8.8 6.4-4.3-0.7-7.1-4.6-6.4-8.9 0.7-4.2 4.6-7 8.8-6.4 4.3 0.7 7.1 4.7 6.4 8.9z"/>
			</g>
		</g>
		<g id="Layer">
			<g id="Layer">
				<g id="Layer">
					<g id="Layer">
						<g id="Layer">
							<g id="Layer">
								<g id="Layer">
									<g id="Layer">
										<path id="Layer" fill-rule="evenodd" class="s1" d="m142.3 132.5c2.3 2.5 4.2 5.3 5.8 8.2h9.3l3.5 15-8.4 4.1c-0.1 3.3-0.7 6.6-1.7 9.9l6.6 6.6-8.1 13-8.8-3c-2.5 2.3-5.3 4.2-8.2 5.8v9.3l-15 3.5-4.1-8.4c-3.3-0.1-6.6-0.7-9.9-1.7l-6.6 6.6-13-8.1 3-8.8c-2.3-2.5-4.3-5.3-5.8-8.2h-9.3l-3.5-15 8.4-4.1c0.1-3.3 0.7-6.6 1.7-9.9l-6.7-6.6 8.2-13 8.8 3c2.5-2.3 5.3-4.2 8.2-5.8v-9.3l15-3.5 4.1 8.4c3.3 0.1 6.6 0.7 9.9 1.7l6.6-6.6 13 8.1zm-18.4 12.3c-7.7-4.8-17.9-2.5-22.8 5.3-4.8 7.7-2.5 18 5.3 22.8 7.7 4.8 17.9 2.5 22.8-5.3 4.8-7.7 2.5-17.9-5.3-22.8z"/>
									</g>
								</g>
							</g>
						</g>
					</g>
				</g>
				<g id="Layer">
					<g id="Layer">
						<g id="Layer">
							<g id="Layer">
								<g id="Layer">
									<g id="Layer">
										<path id="Layer" fill-rule="evenodd" class="s1" d="m151.3 69.3q2 2.1 3.3 4.5h5.1l2 8.3-4.7 2.3q-0.1 2.8-0.9 5.5l3.6 3.6-4.5 7.3-4.9-1.7q-2 1.9-4.5 3.2v5.1l-8.3 2-2.2-4.7q-2.8-0.1-5.5-0.9l-3.7 3.7-7.2-4.6 1.7-4.8q-1.9-2.1-3.2-4.6h-5.2l-1.9-8.3 4.6-2.2q0.1-2.8 1-5.5l-3.7-3.7 4.5-7.2 4.9 1.7q2.1-1.9 4.5-3.2v-5.2l8.3-1.9 2.3 4.6q2.8 0.1 5.5 1l3.6-3.7 7.2 4.5zm-10.1 6.8c-4.3-2.6-10-1.3-12.7 3-2.7 4.2-1.3 9.9 2.9 12.6 4.3 2.7 10 1.4 12.7-2.9 2.7-4.3 1.4-10-2.9-12.7z"/>
									</g>
								</g>
							</g>
						</g>
					</g>
				</g>
				<g id="Layer">
					<g id="Layer">
						<g id="Layer">
							<g id="Layer">
								<g id="Layer">
									<g id="Layer">
										<g id="Layer">
											<path id="Layer" fill-rule="evenodd" class="s2" d="m87.2 79.2q1.6 1.6 2.6 3.6h4.2l1.5 6.8-3.7 1.8q-0.1 2.2-0.8 4.4l3 3-3.7 5.8-3.9-1.3q-1.7 1.5-3.7 2.6v4.2l-6.7 1.5-1.8-3.7q-2.3-0.1-4.5-0.8l-2.9 3-5.9-3.7 1.4-3.9q-1.6-1.7-2.6-3.7h-4.2l-1.6-6.7 3.8-1.9q0.1-2.2 0.7-4.4l-2.9-3 3.6-5.8 4 1.4q1.7-1.6 3.7-2.7l-0.1-4.1 6.8-1.6 1.8 3.8q2.2 0 4.4 0.7l3-3 5.9 3.7zm-8.3 5.5c-3.5-2.1-8.1-1.1-10.2 2.4-2.2 3.5-1.1 8.1 2.3 10.2 3.5 2.2 8.1 1.1 10.3-2.3 2.1-3.5 1.1-8.1-2.4-10.3z"/>
										</g>
										<g id="Layer">
											<g id="Layer">
												<path id="Layer" class="s1" d="m78.9 84.7q0 0 0.4 0.2 0.5 0.3 1.1 0.9c0.8 0.8 1.9 2.3 2.1 4.5 0.1 1.1 0.1 2.3-0.4 3.5-0.5 1.1-1.3 2.3-2.4 3.2q-0.8 0.7-1.9 1.1-1.1 0.4-2.2 0.5c-1.6 0.1-3.3-0.3-4.7-1.1-1.4-0.9-2.5-2.2-3-3.7q-0.5-1.1-0.5-2.2-0.1-1.2 0.1-2.2c0.3-1.4 1-2.6 1.9-3.6 0.9-0.9 1.9-1.5 2.9-1.9 2.1-0.8 3.9-0.5 5-0.1q0.8 0.3 1.2 0.6 0.4 0.3 0.4 0.3c0 0-0.5-0.3-1.7-0.7-1.1-0.3-2.8-0.6-4.8 0.2-0.9 0.4-1.9 1-2.7 1.9-0.8 0.9-1.5 2-1.7 3.4q-0.3 1-0.2 2 0.1 1.1 0.5 2.1c0.5 1.4 1.6 2.6 2.9 3.5 1.3 0.8 2.9 1.2 4.3 1q1.1 0 2.1-0.4 1-0.4 1.8-1c1.1-0.9 1.9-2 2.3-3.1 0.5-1.1 0.6-2.3 0.5-3.3-0.2-2.1-1.1-3.6-1.9-4.4-0.8-0.8-1.4-1.2-1.4-1.2z"/>
											</g>
										</g>
										<g id="Layer">
											<g id="Layer">
												<path id="Layer" class="s1" d="m87.2 79.2q0 0 0.1-0.3 0-0.3 0.2-0.7 0.3-1.1 1-3v0.1c-1.5-1-3.5-2.2-5.9-3.7h0.2q-1.4 1.4-3 3v0.1l-0.1-0.1c-1.3-0.4-2.8-0.6-4.4-0.7h-0.1v-0.1q-0.9-1.7-1.9-3.7l0.2 0.1q-3.2 0.7-6.7 1.5l0.1-0.1c0 1.3 0 2.7 0 4.1v0.2h-0.1c-1.2 0.7-2.4 1.5-3.6 2.6l-0.1 0.1-0.1-0.1c-1.2-0.4-2.6-0.8-3.9-1.3l0.2-0.1c-1.1 1.8-2.4 3.8-3.7 5.9v-0.3c0.9 0.9 2 1.9 3 2.9l0.1 0.1-0.1 0.2c-0.4 1.3-0.6 2.8-0.7 4.4v0.1h-0.1c-1.2 0.6-2.5 1.2-3.8 1.9l0.1-0.3c0.5 2.1 1.1 4.4 1.6 6.8l-0.2-0.2c1.3 0 2.7 0 4.2 0h0.1l0.1 0.1c0.6 1.2 1.5 2.5 2.5 3.6 0.1 0.1 0-0.2 0.1 0.2v0.1 0.1l-0.1 0.1-0.1 0.2-0.2 0.5-0.3 1q-0.3 1-0.7 2l-0.1-0.3q3 1.9 5.9 3.7h-0.3q1.5-1.5 2.9-2.9l0.1-0.1h0.2q2.1 0.7 4.4 0.7h0.1l0.1 0.2q0.9 1.9 1.8 3.7l-0.3-0.1q3.5-0.8 6.8-1.5l-0.2 0.2q0-2.2 0-4.2v-0.1l0.1-0.1q2-1.1 3.6-2.6l0.1-0.1 0.1 0.1q2.1 0.7 4 1.4h-0.2q1.9-3 3.6-5.8l0.1 0.2q-1.6-1.5-3-2.9l-0.1-0.1 0.1-0.1c0.4-1.5 0.7-3 0.7-4.4v-0.1l0.1-0.1c1.4-0.6 2.6-1.2 3.8-1.8l-0.1 0.2c-0.6-2.6-1.1-4.8-1.5-6.8l0.1 0.1c-1.7 0-3.1 0-4.2 0h-0.1c-0.7-1.4-1.3-2.3-1.8-2.9q-0.4-0.4-0.5-0.6-0.2-0.2-0.2-0.2 0 0 0.2 0.2 0.2 0.2 0.5 0.6c0.5 0.6 1.2 1.5 2 2.8h-0.1c1.1 0 2.5-0.1 4.2-0.1h0.1v0.1c0.4 1.9 1 4.1 1.6 6.7v0.1l-0.1 0.1c-1.2 0.6-2.4 1.2-3.8 1.8l0.1-0.1c0 1.4-0.2 2.9-0.7 4.5l-0.1-0.2q1.5 1.4 3 3l0.1 0.1-0.1 0.1q-1.7 2.8-3.6 5.9l-0.1 0.1-0.1-0.1q-2-0.6-4-1.3l0.2-0.1q-1.6 1.6-3.7 2.7l0.1-0.2q0 2 0 4.2v0.1l-0.1 0.1q-3.3 0.7-6.8 1.5l-0.2 0.1v-0.2q-0.9-1.8-1.9-3.7l0.2 0.1q-2.2-0.1-4.5-0.8h0.3q-1.5 1.4-3 2.9l-0.1 0.2-0.2-0.1q-2.9-1.8-5.8-3.7l-0.2-0.1 0.1-0.2q0.3-0.9 0.7-1.9l0.3-1 0.2-0.5 0.1-0.3v-0.1-0.1c0.1 0.5 0.1 0.1 0.1 0.2-1.1-1.1-2-2.4-2.7-3.7l0.3 0.1c-1.5 0-2.9 0-4.2 0h-0.2l-0.1-0.1c-0.5-2.4-1-4.7-1.5-6.8l-0.1-0.2h0.2c1.3-0.7 2.6-1.3 3.8-1.9l-0.1 0.2c0-1.5 0.3-3.1 0.7-4.5l0.1 0.3c-1.1-1.1-2.1-2.1-3-3l-0.1-0.1 0.1-0.2c1.3-2 2.5-4 3.7-5.8v-0.2l0.2 0.1c1.4 0.5 2.7 0.9 3.9 1.4h-0.2c1.2-1.1 2.5-2 3.8-2.6l-0.1 0.1c0-1.4 0-2.8-0.1-4.1v-0.2h0.2q3.5-0.8 6.7-1.6h0.2v0.1q1 2 1.8 3.8l-0.1-0.1c1.6 0.1 3.1 0.4 4.5 0.8h-0.1q1.6-1.6 2.9-2.9l0.1-0.1h0.1c2.3 1.6 4.3 2.8 5.8 3.8h0.1-0.1q-0.7 1.9-1 3-0.2 0.4-0.3 0.7-0.1 0.3-0.1 0.3z"/>
											</g>
										</g>
									</g>
								</g>
							</g>
						</g>
					</g>
				</g>
			</g>
		</g>
	</g>
	<g id="Screen">
		<g id="Layer">
			<g id="Layer">
				<g id="Layer">
					<g id="Layer">
						<g id="Layer">
							<g id="Layer">
								<g id="Layer">
									<g id="Layer">
										<g id="Layer">
											<g id="Layer">
												<g id="Layer">
													<path id="Layer" class="s3" d="m326.6 41.7l-29.4-0.2c-4 0-7.2 3.3-7.2 7.5v5.3c0 4.1-3.3 7.5-7.2 7.4l-57.3-0.2c-4 0-7.1-3.4-7.1-7.5v-5.4c0-4.1-3.2-7.4-7.1-7.5h-10.3l-25.8-0.1c-12.8-0.1-23.2 10.2-23.2 23l-1.6 371.1c0 12.8 10.3 23.2 23 23.2l151.4 0.7c12.8 0.1 23.2-10.2 23.2-23l1.6-371.1c0-12.8-10.3-23.2-23-23.2z"/>
												</g>
												<g id="Layer">
													<g id="Layer">
														<path id="Layer" class="s4" d="m326.6 41.7q0 0 0.8 0c0.5 0.1 1.3 0 2.3 0.2 2 0.3 5.2 0.9 8.7 3 1.7 1 3.5 2.5 5.2 4.3 1.7 1.9 3.3 4.2 4.4 7 1.1 2.7 1.7 5.9 1.7 9.3q0 5.2-0.1 11c-0.1 30.8-0.2 75.4-0.4 130.5-0.2 55.1-0.5 120.7-0.8 193.6q0 13.6-0.1 27.6 0 3.5 0 7.1c-0.1 2.3-0.2 4.7-0.9 7-0.7 2.3-1.7 4.5-3 6.5-1.4 2-3 3.8-4.8 5.3-3.8 3-8.5 4.9-13.4 5.1-1.2 0.1-2.4 0.1-3.6 0.1h-3.6q-3.7-0.1-7.3-0.1-14.6 0-29.5-0.1-29.7-0.2-60.5-0.3-15.3-0.1-30.9-0.1-7.8-0.1-15.6-0.1c-5.2 0.2-10.7-1.2-15-4.2-4.4-3-7.6-7.6-9.1-12.7-0.8-2.5-1-5.2-0.9-7.8q0-3.9 0-7.8 0.1-15.6 0.1-30.9 0.2-30.8 0.3-60.5c0.2-39.7 0.3-77.9 0.5-114.4 0.1-36.4 0.3-71 0.4-103.4q0.2-24.3 0.3-46.9 0-2.8 0-5.6c0-1 0.1-1.9 0.1-2.8 0.2-0.9 0.3-1.9 0.5-2.8 0.9-3.6 2.5-7 4.9-9.7 2.4-2.8 5.3-5 8.6-6.4 3.2-1.5 6.8-2 10.3-1.9q10.3 0.1 20.1 0.1 4.9 0 9.7 0 2.4 0.1 4.8 0.1c1.6-0.1 3.2 0.3 4.5 1.3 1.3 0.9 2.3 2.2 2.8 3.7 0.6 1.4 0.4 3 0.5 4.5q0 1.2-0.1 2.3c0 0.7 0 1.5 0.1 2.2 0.2 1.4 0.8 2.8 1.7 3.9 1 1.1 2.2 1.9 3.6 2.2 0.7 0.2 1.4 0.2 2.1 0.2q1 0 2.1 0 4.2 0.1 8.4 0.1 16.4 0.1 30.5 0.1 7 0.1 13.4 0.1c1.1 0 2.1 0.1 3.2 0 1-0.1 2-0.5 2.8-1 1.7-1.1 2.9-2.8 3.3-4.7 0.2-0.9 0.2-1.8 0.2-2.8q0-1.4 0-2.8c0-0.9 0-1.8 0.1-2.6q0.3-1.4 0.9-2.5c0.8-1.5 2.2-2.7 3.7-3.3 1.5-0.6 3.1-0.4 4.6-0.4q8.9 0 15 0.1 6.1 0 9.2 0 3.1 0.1 3.2 0.1-0.1 0-3.2 0-3.1 0-9.2 0-6.1 0-15-0.1c-1.5 0.1-3.1-0.1-4.5 0.5-1.5 0.6-2.8 1.7-3.6 3.2q-0.7 1.1-0.9 2.4c-0.2 0.8-0.1 1.7-0.1 2.6q0 1.4 0 2.8c0 0.9 0 1.9-0.2 2.9-0.4 1.9-1.6 3.7-3.4 4.8-0.9 0.5-1.9 0.9-2.9 1-1.1 0.1-2.1 0-3.2 0q-6.4 0-13.4 0-14.1-0.1-30.5-0.1-4.2-0.1-8.4-0.1-1.1 0-2.1 0c-0.7 0-1.5 0-2.2-0.2-1.4-0.4-2.7-1.2-3.7-2.3-1-1.1-1.6-2.6-1.8-4.1-0.1-0.7-0.1-1.5-0.1-2.2q0-1.2 0-2.3c0-1.5 0.2-3-0.4-4.4-0.5-1.4-1.4-2.7-2.7-3.6-1.2-0.8-2.8-1.3-4.3-1.2q-2.4 0-4.8 0-4.8 0-9.7-0.1-9.8 0-20.1 0c-3.5-0.1-7 0.4-10.2 1.8-3.2 1.4-6.1 3.6-8.4 6.3-2.3 2.7-4 6.1-4.8 9.6-0.3 0.9-0.3 1.8-0.5 2.7 0 0.9-0.1 1.8-0.1 2.8q0 2.8 0 5.6-0.1 22.6-0.2 46.9c-0.2 32.4-0.3 67-0.4 103.4-0.2 36.5-0.3 74.7-0.5 114.4q-0.1 29.7-0.3 60.5 0 15.3-0.1 30.9 0 3.9 0 7.8c0 2.6 0.1 5.2 0.9 7.7 1.4 4.9 4.6 9.4 8.9 12.4 4.3 2.9 9.5 4.3 14.7 4.1q7.8 0 15.6 0 15.6 0.1 30.9 0.2 30.8 0.1 60.5 0.3 14.9 0 29.5 0.1 3.6 0 7.3 0l3.6 0.1c1.2 0 2.4 0 3.6-0.1 4.8-0.2 9.4-2.1 13-5 1.9-1.5 3.5-3.3 4.8-5.2 1.3-1.9 2.2-4.1 2.9-6.3 0.7-2.3 0.8-4.6 0.9-7q0-3.5 0-7 0.1-14 0.1-27.6c0.4-72.9 0.7-138.5 0.9-193.6 0.3-55.1 0.5-99.7 0.6-130.5q0.1-5.8 0.1-11c0.1-3.4-0.5-6.5-1.7-9.3-1.1-2.7-2.6-5-4.3-6.9-1.7-1.8-3.4-3.3-5.2-4.3-3.5-2.1-6.6-2.8-8.6-3-1-0.3-1.8-0.2-2.3-0.3q-0.8 0-0.8 0z"/>
													</g>
												</g>
											</g>
										</g>
									</g>
								</g>
							</g>
						</g>
					</g>
				</g>
			</g>
			<g id="Layer">
				<g id="Layer">
					<path id="Layer" class="s5" d="m299.4 158.5l-2.3-2.7 6.8-3.6-31.4-10.6 10.6 30.4 3.9-5.1c0 0 20.3 35.8 0 57.5-20.2 21.6-44 16.9-44 16.9l4.6 15c0 0 37.4 2.7 57.5-31.1 20-33.9-5.7-66.7-5.7-66.7z"/>
				</g>
				<g id="Layer">
					<path id="Layer" class="s5" d="m205.2 233.5l2.3 2.7-6.8 3.7 31.4 10.6-10.6-30.4-3.9 5c0 0-20.3-35.7 0-57.5 20.2-21.6 44-16.9 44-16.9l-4.6-15c0 0-37.4-2.6-57.5 31.2-20 33.8 5.7 66.6 5.7 66.6z"/>
				</g>
				<g id="Layer">
					<path id="Layer" class="s6" d="m299.4 158.5l-2.3-2.7 6.8-3.6-31.4-10.6 10.6 30.4 3.9-5.1c0 0 20.3 35.8 0 57.5-20.2 21.6-44 16.9-44 16.9l4.6 15c0 0 37.4 2.7 57.5-31.1 20-33.9-5.7-66.7-5.7-66.7z"/>
				</g>
				<g id="Layer">
					<path id="Layer" class="s6" d="m205.2 233.5l2.3 2.7-6.8 3.7 31.4 10.6-10.6-30.4-3.9 5c0 0-20.3-35.7 0-57.5 20.2-21.6 44-16.9 44-16.9l-4.6-15c0 0-37.4-2.6-57.5 31.2-20 33.8 5.7 66.6 5.7 66.6z"/>
				</g>
				<g id="Layer" style="opacity: .8">
					<path id="Layer" class="s6" d="m299.4 158.5l-2.3-2.7 6.8-3.6-31.4-10.6 10.6 30.4 3.9-5.1c0 0 20.3 35.8 0 57.5-20.2 21.6-44 16.9-44 16.9l4.6 15c0 0 37.4 2.7 57.5-31.1 20-33.9-5.7-66.7-5.7-66.7z"/>
				</g>
				<g id="Layer" style="opacity: .8">
					<path id="Layer" class="s6" d="m205.2 233.5l2.3 2.7-6.8 3.7 31.4 10.6-10.6-30.4-3.9 5c0 0-20.3-35.7 0-57.5 20.2-21.6 44-16.9 44-16.9l-4.6-15c0 0-37.4-2.6-57.5 31.2-20 33.8 5.7 66.6 5.7 66.6z"/>
				</g>
				<g id="Layer">
					<g id="Layer">
						<g id="Layer">
							<g id="Layer">
								<g id="Layer">
									<g id="Layer">
										<g id="Layer">
											<path id="Layer" fill-rule="evenodd" class="s7" d="m270.2 179.3q2.3 2.4 3.8 5.3h6l2.3 9.7-5.5 2.6q-0.1 3.3-1 6.4l4.2 4.3-5.3 8.4-5.7-1.9q-2.4 2.2-5.3 3.7l0.1 6.1-9.8 2.2-2.6-5.4q-3.2-0.1-6.4-1.1l-4.3 4.3-8.4-5.3 2-5.7q-2.3-2.4-3.8-5.3h-6.1l-2.2-9.7 5.4-2.6q0.1-3.3 1.1-6.5l-4.3-4.2 5.3-8.5 5.7 2q2.5-2.3 5.3-3.8v-6l9.7-2.2 2.7 5.4q3.2 0.1 6.4 1.1l4.2-4.3 8.5 5.3zm-11.9 7.9c-5-3.1-11.6-1.6-14.8 3.4-3.1 5.1-1.6 11.7 3.4 14.8 5 3.1 11.7 1.6 14.8-3.4 3.1-5 1.6-11.6-3.4-14.8z"/>
										</g>
									</g>
								</g>
							</g>
						</g>
					</g>
				</g>
				<g id="Layer" style="opacity: .6">
					<g id="Layer">
						<g id="Layer">
							<g id="Layer">
								<g id="Layer">
									<g id="Layer">
										<g id="Layer">
											<path id="Layer" fill-rule="evenodd" class="s3" d="m258.3 186.2c-5-3.1-11.6-1.6-14.8 3.4-3.1 5.1-1.6 11.7 3.4 14.8 5.1 3.1 11.7 1.6 14.8-3.4 3.1-5 1.6-11.6-3.4-14.8z"/>
										</g>
									</g>
								</g>
							</g>
						</g>
					</g>
				</g>
			</g>
			<g id="Layer">
				<g id="Layer">
					<path id="Layer" class="s4" d="m219.7 294.8v-6.4h1.2v6.3c0 2.7 1.2 3.9 3.4 3.9 2.2 0 3.4-1.2 3.4-3.9v-6.3h1.2v6.4c0 3.2-1.7 4.9-4.6 4.9-2.9 0-4.6-1.7-4.6-4.9z"/>
				</g>
				<g id="Layer">
					<path id="Layer" fill-rule="evenodd" class="s4" d="m241.2 292.2c0 2.4-1.7 3.8-4.6 3.8h-3v3.6h-1.2v-11.2h4.2c2.9 0 4.6 1.4 4.6 3.8zm-1.2 0c0-1.8-1.2-2.8-3.4-2.8h-3v5.6h3c2.2 0 3.4-1 3.4-2.8z"/>
				</g>
				<g id="Layer">
					<path id="Layer" fill-rule="evenodd" class="s4" d="m243.8 288.4h4.5c3.6 0 6 2.3 6 5.6 0 3.3-2.4 5.6-6 5.6h-4.5zm4.4 10.1c3 0 4.9-1.8 4.9-4.5 0-2.7-1.9-4.6-4.9-4.6h-3.3v9.1z"/>
				</g>
				<g id="Layer">
					<path id="Layer" fill-rule="evenodd" class="s4" d="m263.8 296.6h-6.2l-1.4 3h-1.2l5.1-11.2h1.2l5.1 11.2h-1.2zm-0.5-1l-2.7-6-2.6 6z"/>
				</g>
				<g id="Layer">
					<path id="Layer" class="s4" d="m269.9 289.4h-4v-1h9.1v1h-4v10.2h-1.1c0 0 0-10.2 0-10.2z"/>
				</g>
				<g id="Layer">
					<path id="Layer" class="s4" d="m284.8 298.6v1h-7.9v-11.2h7.6v1h-6.5v4h5.8v1h-5.8v4.1z"/>
				</g>
			</g>
			<g id="Layer">
				<g id="Layer">
					<g id="Layer">
						<g id="Layer">
							<g id="Layer">
								<g id="Layer">
									<path id="Layer" class="s4" d="m335.3 77.7c0 0.1-4 0.2-9 0.2-5 0.1-9.1 0-9.1-0.1 0-0.1 4.1-0.2 9.1-0.2 5-0.1 9 0 9 0.1z"/>
								</g>
							</g>
						</g>
					</g>
				</g>
				<g id="Layer">
					<g id="Layer">
						<g id="Layer">
							<g id="Layer">
								<g id="Layer">
									<path id="Layer" class="s4" d="m335.4 82.3c0 0.1-4.1 0.2-9.1 0.3-5 0-9 0-9-0.1 0-0.1 4-0.3 9-0.3 5 0 9.1 0 9.1 0.1z"/>
								</g>
							</g>
						</g>
					</g>
				</g>
				<g id="Layer">
					<g id="Layer">
						<g id="Layer">
							<g id="Layer">
								<g id="Layer">
									<path id="Layer" class="s4" d="m335.4 86.9c0 0.1-4 0.3-9 0.3-5 0.1-9.1 0-9.1-0.1 0-0.1 4.1-0.2 9.1-0.3 5 0 9 0 9 0.1z"/>
								</g>
							</g>
						</g>
					</g>
				</g>
			</g>
			<g id="Layer">
				<g id="Layer">
					<g id="Layer">
						<g id="Layer">
							<g id="Layer">
								<path id="Layer" class="s4" d="m170.6 92.2q0.1 0 0.4 0 0.5 0 1.1 0 1.5-0.1 3.8-0.1l-0.1 0.1q0-1.3 0-2.8c0-0.5-0.1-1 0-1.6 0.1-0.6 0.6-1.2 1.3-1.2 0.6 0 1.2-0.1 1.8 0 0.7 0.1 1.3 0.7 1.3 1.5q0 1.9 0 4.1l-0.1-0.2q2.3 0 4.8-0.1l-0.1 0.2q-0.1-2.9-0.1-6.1 0-0.7 0-1.5c0-0.5-0.3-0.8-0.7-1.2q-1.1-1-2.1-2.1-1.1-1-2.1-2-0.5-0.5-1-1c-0.3-0.3-0.6-0.6-1-0.7-0.4-0.1-0.8-0.1-1.1 0.2-0.3 0.2-0.6 0.6-0.9 0.9q-0.9 0.9-1.8 1.7c-1.1 1.2-2.2 2.2-3 3.2-0.4 0.6-0.3 1.2-0.3 1.8q0 0.9 0 1.8 0 1.5 0 2.7 0 1.1 0 1.8 0 0.6-0.1 0.6 0 0 0-0.6 0-0.7 0-1.7-0.1-1.2-0.1-2.8 0-0.8 0-1.7 0-0.5 0-1 0-0.5 0.2-1c0.9-1.1 2-2.1 3.1-3.3q0.9-0.8 1.7-1.8c0.4-0.3 0.6-0.6 1-0.9 0.4-0.3 0.9-0.4 1.4-0.3 0.5 0.1 0.9 0.6 1.2 0.9q0.5 0.5 1 0.9 1 1 2 2.1 1.1 1 2.2 2.1c0.1 0.1 0.4 0.3 0.5 0.6q0.3 0.3 0.3 0.8 0 0.8 0 1.5 0 3.2 0 6.1v0.2h-0.2q-2.5 0-4.8 0h-0.2v-0.1q0-2.2 0-4.1c0-0.6-0.5-1.1-1-1.2-0.6 0-1.2 0-1.8 0-0.5 0-0.9 0.4-1 0.9-0.1 0.5 0 1.1-0.1 1.6q0 1.5 0 2.8v0.1h-0.1q-2.4 0-3.9 0-0.6 0-1-0.1-0.4 0-0.4 0z"/>
							</g>
						</g>
					</g>
				</g>
			</g>
			<g id="Layer">
				<g id="Layer">
					<path id="Layer" class="s4" d="m290.5 88.3c0 0.1-15.2 0.2-34 0.2-18.8 0-34.1-0.1-34.1-0.2 0-0.2 15.3-0.3 34.1-0.3 18.8 0 34 0.1 34 0.3z"/>
				</g>
			</g>
			<g id="Layer">
				<g id="Layer">
					<path id="Layer" class="s8" d="m288.7 404.3h-71.4c-9.1 0-16.5-7.4-16.5-16.5 0-9.1 7.4-16.5 16.5-16.5h71.4c9.2 0 16.6 7.4 16.6 16.5 0 9.1-7.4 16.5-16.6 16.5z"/>
				</g>
				<g id="Layer">
					<path id="Layer" class="s3" d="m239.4 390.2l0.6-1.3c0.6 0.5 1.6 0.8 2.5 0.8 1 0 1.4-0.4 1.4-0.8 0-1.4-4.4-0.5-4.4-3.3 0-1.3 1.1-2.4 3.2-2.4 1 0 2 0.3 2.7 0.7l-0.6 1.4c-0.7-0.4-1.4-0.6-2.1-0.6-1 0-1.4 0.3-1.4 0.8 0 1.4 4.4 0.5 4.4 3.2 0 1.3-1.1 2.4-3.2 2.4-1.2 0-2.5-0.4-3.1-0.9z"/>
					<path id="Layer" class="s3" d="m250.5 390.7c-0.3 0.2-0.8 0.4-1.3 0.4-1.4 0-2.2-0.7-2.2-2.1v-2.4h-0.9v-1.3h0.9v-1.5h1.7v1.5h1.4v1.3h-1.4v2.3c0 0.5 0.2 0.8 0.7 0.8 0.2 0 0.5-0.1 0.7-0.2z"/>
					<path id="Layer" fill-rule="evenodd" class="s3" d="m256.6 387.6v3.4h-1.5v-0.8q-0.5 0.9-1.8 0.9c-1.4 0-2.2-0.8-2.2-1.8 0-1 0.7-1.8 2.5-1.8h1.4c0-0.7-0.5-1.1-1.4-1.1-0.6 0-1.3 0.2-1.7 0.5l-0.6-1.1c0.7-0.5 1.6-0.8 2.5-0.8 1.8 0 2.8 0.9 2.8 2.6zm-1.6 1.5v-0.6h-1.2c-0.8 0-1 0.3-1 0.7 0 0.4 0.3 0.7 0.9 0.7 0.6 0 1.1-0.2 1.3-0.8z"/>
					<path id="Layer" class="s3" d="m261.8 385v1.6q-0.2 0-0.4 0c-0.9 0-1.5 0.5-1.5 1.6v2.8h-1.7v-5.9h1.6v0.8c0.4-0.6 1.1-0.9 2-0.9z"/>
					<path id="Layer" class="s3" d="m266.8 390.7c-0.4 0.2-0.9 0.4-1.4 0.4-1.4 0-2.2-0.7-2.2-2.1v-2.4h-0.9v-1.3h0.9v-1.5h1.7v1.5h1.5v1.3h-1.5v2.3c0 0.5 0.3 0.8 0.7 0.8 0.3 0 0.5-0.1 0.7-0.2z"/>
				</g>
			</g>
			<g id="Layer">
				<g id="Layer">
					<path id="Layer" class="s4" d="m320.9 325.9c0 0.2-30.7 0.3-68.6 0.3-37.9 0-68.6-0.1-68.6-0.3 0-0.1 30.7-0.2 68.6-0.2 37.9 0 68.6 0.1 68.6 0.2z"/>
				</g>
			</g>
			<g id="Layer">
				<g id="Layer">
					<path id="Layer" class="s4" d="m293.6 334.3c0 0.2-18.5 0.3-41.3 0.3-22.8 0-41.3-0.1-41.3-0.3 0-0.1 18.5-0.2 41.3-0.2 22.8 0 41.3 0.1 41.3 0.2z"/>
				</g>
			</g>
		</g>
	</g>
	<g id="Character">
		<g id="Layer">
			<g id="Layer">
				<g id="Layer">
					<g id="Layer">
						<g id="Layer">
							<g id="Layer">
								<g id="Layer">
									<g id="Layer">
										<path id="Layer" class="s6" d="m103.7 458.2l-6.1 22.5 19.8 1.8 4.1-21.4z"/>
									</g>
								</g>
							</g>
						</g>
						<g id="Layer">
							<g id="Layer">
								<g id="Layer">
									<g id="Layer">
										<g id="Layer">
											<path id="Layer" class="s4" d="m117.9 480.7c0 0.1-1.1 0-2.9-0.1-1.7-0.2-4.2-0.4-6.9-0.8-2.6-0.3-4.9-0.6-6.9-0.9-1.7-0.3-2.8-0.4-2.8-0.5 0-0.1 1.1 0 2.9 0.1 1.7 0.2 4.2 0.4 6.9 0.8 2.6 0.3 4.9 0.6 6.9 0.9 1.8 0.2 2.8 0.4 2.8 0.5z"/>
										</g>
									</g>
								</g>
							</g>
						</g>
						<g id="Layer" style="opacity: .6">
							<g id="Layer">
								<g id="Layer">
									<g id="Layer">
										<path id="Layer" class="s3" d="m97.6 480.7l19.8 1.8 0.3-1.6-19.5-2.5-0.6 2.1"/>
									</g>
								</g>
							</g>
						</g>
					</g>
				</g>
				<g id="Layer">
					<g id="Layer">
						<g id="Layer">
							<g id="Layer">
								<path id="Layer" class="s4" d="m107.4 479.7c-0.1 0 0.7-3.9 1.9-8.6 1.2-4.7 2.2-8.5 2.3-8.5 0.2 0-0.7 3.9-1.8 8.6-1.2 4.7-2.2 8.5-2.4 8.5z"/>
							</g>
						</g>
					</g>
				</g>
				<g id="Layer">
					<g id="Layer">
						<g id="Layer">
							<g id="Layer">
								<path id="Layer" class="s4" d="m116.8 480.5c-0.1 0 0.7-1.6 0.1-4.1-0.3-1.3-1-2.7-2.2-4-1.2-1.2-2.9-2-4.9-2.2-1.9-0.2-3.8 0.3-5.3 1.2-1.4 0.9-2.4 2.1-3 3.3-1.3 2.3-1.2 4-1.3 4q0 0 0-0.3 0-0.3 0-0.9c0.1-0.7 0.4-1.8 1-3 0.6-1.2 1.6-2.5 3.1-3.5 1.5-1 3.5-1.5 5.6-1.3 2 0.2 3.9 1.1 5.1 2.4 1.3 1.3 1.9 2.9 2.2 4.2 0.3 1.3 0.2 2.4 0 3.1q-0.1 0.6-0.2 0.9-0.1 0.2-0.2 0.2z"/>
							</g>
						</g>
					</g>
				</g>
			</g>
			<g id="Layer">
				<g id="Layer">
					<g id="Layer">
						<g id="Layer">
							<g id="Layer">
								<path id="Layer" class="s6" d="m185.2 452.2l-1.3 20c0 0 19.9 6.6 20 10.3l-38.8 0.3 0.8-31.2z"/>
							</g>
						</g>
					</g>
					<g id="Layer" style="opacity: .6">
						<g id="Layer">
							<g id="Layer">
								<g id="Layer">
									<path id="Layer" class="s3" d="m172 470.1c-0.8 0.2-1.3 1-1.2 1.8 0.2 0.8 1 1.3 1.8 1.2 0.7-0.2 1.4-1.2 1.2-1.9-0.3-0.8-1.3-1.4-2-1"/>
								</g>
							</g>
						</g>
					</g>
					<g id="Layer" style="opacity: .6">
						<g id="Layer">
							<g id="Layer">
								<path id="Layer" class="s3" d="m165.1 482.8v-3.2l37.5 1c0 0 1.3 0.6 1.5 2.2z"/>
							</g>
						</g>
					</g>
					<g id="Layer">
						<g id="Layer">
							<g id="Layer">
								<g id="Layer">
									<path id="Layer" class="s4" d="m184.5 472c0 0.2-0.9 0.2-1.9 0.8-0.9 0.6-1.4 1.4-1.6 1.3-0.2 0 0.1-1.2 1.3-1.8 1.1-0.7 2.3-0.5 2.2-0.3z"/>
								</g>
							</g>
						</g>
					</g>
					<g id="Layer">
						<g id="Layer">
							<g id="Layer">
								<g id="Layer">
									<path id="Layer" class="s4" d="m188.6 473.8c0 0.2-0.8 0.5-1.5 1.3-0.7 0.7-0.9 1.6-1.1 1.6-0.2 0-0.3-1.1 0.6-2.1 0.8-0.9 2-1 2-0.8z"/>
								</g>
							</g>
						</g>
					</g>
					<g id="Layer">
						<g id="Layer">
							<g id="Layer">
								<g id="Layer">
									<path id="Layer" class="s4" d="m190.7 478.7c-0.2 0.1-0.4-0.9 0.1-1.9 0.5-1 1.4-1.4 1.5-1.3 0.1 0.2-0.5 0.7-0.9 1.6-0.4 0.8-0.5 1.6-0.7 1.6z"/>
								</g>
							</g>
						</g>
					</g>
					<g id="Layer">
						<g id="Layer">
							<g id="Layer">
								<g id="Layer">
									<path id="Layer" class="s4" d="m184.3 467.4c-0.1 0.2-0.9-0.1-2-0.1-1.1 0.1-1.9 0.4-2 0.2-0.1-0.1 0.7-0.8 2-0.8 1.3-0.1 2.1 0.6 2 0.7z"/>
								</g>
							</g>
						</g>
					</g>
				</g>
				<g id="Layer">
					<g id="Layer">
						<g id="Layer">
							<g id="Layer">
								<path id="Layer" class="s4" d="m184.5 463.4c0 0.1-0.7 0.2-1.9-0.1-0.6-0.1-1.3-0.3-2-0.7q-0.6-0.2-1.1-0.6c-0.2-0.1-0.4-0.2-0.6-0.5-0.2-0.2-0.3-0.7-0.1-1 0.3-0.3 0.6-0.4 0.9-0.4 0.3 0 0.5 0.1 0.7 0.1q0.7 0.2 1.2 0.5c0.7 0.3 1.3 0.8 1.8 1.2 0.8 0.9 1.1 1.6 1.1 1.6-0.1 0.1-0.6-0.5-1.4-1.2-0.5-0.4-1.1-0.8-1.7-1.1q-0.6-0.2-1.2-0.3c-0.4-0.2-0.7-0.2-0.8 0-0.1 0.1-0.1 0.1 0 0.2 0.1 0.1 0.3 0.2 0.4 0.4q0.5 0.3 1 0.6c0.7 0.3 1.4 0.6 1.9 0.8 1.1 0.3 1.8 0.4 1.8 0.5z"/>
							</g>
						</g>
					</g>
				</g>
				<g id="Layer">
					<g id="Layer">
						<g id="Layer">
							<g id="Layer">
								<path id="Layer" class="s4" d="m184.3 463.6c-0.1 0.1-0.5-0.6-0.5-1.8 0-0.7 0.1-1.4 0.3-2.2q0.2-0.5 0.6-1.1c0.2-0.4 0.5-0.9 1.2-1 0.4 0 0.7 0.3 0.8 0.6 0.2 0.3 0.2 0.5 0.2 0.7q0.1 0.7 0 1.3c-0.2 0.8-0.5 1.5-0.9 2-0.8 1-1.6 1.2-1.6 1.1-0.1-0.1 0.6-0.4 1.2-1.4 0.3-0.4 0.6-1.1 0.7-1.8q0.1-0.5 0-1.1c-0.1-0.4-0.2-0.8-0.4-0.7-0.2 0-0.5 0.3-0.7 0.6q-0.3 0.5-0.5 1c-0.2 0.7-0.4 1.4-0.4 2-0.1 1.1 0.1 1.8 0 1.8z"/>
							</g>
						</g>
					</g>
				</g>
			</g>
			<g id="Layer">
				<g id="Layer">
					<g id="Layer">
						<path id="Layer" class="s4" d="m185.2 278.8l-59.1-0.4-28.6 187.7 24.6 3.1 31.4-154.3 9.4 154.8v0.5l26.6-0.5z"/>
					</g>
				</g>
				<g id="Layer">
					<g id="Layer">
						<path id="Layer" class="s9" d="m158.3 294q0 0 1.3 0 1.3-0.1 3.5-0.2c3.2-0.1 7.6-0.2 12.8-0.3h0.2v0.2c0 3.7 0 7.9 0.1 12.3v0.1l-0.1 0.1q-1.1 1-2.3 2-3.4 3.2-6.5 6l-0.2 0.2-0.2-0.2c-3.2-2.9-6.2-5.5-8.7-7.8h-0.1v-0.1c0.1-3.8 0.1-6.8 0.1-9q0.1-1.5 0.1-2.4 0-0.9 0-0.9 0.1 0.1 0.1 0.9 0 1 0 2.5c0.1 2.2 0.1 5.2 0.1 8.9v-0.2c2.5 2.2 5.5 4.9 8.8 7.7h-0.4c2.1-1.9 4.3-3.9 6.6-6q1.1-1 2.2-2l-0.1 0.2c0-4.4 0-8.6 0.1-12.3l0.2 0.2c-5.2 0.1-9.5 0.1-12.6 0.2q-2.3 0-3.6 0-0.6 0-1 0-0.4 0-0.4-0.1z"/>
					</g>
				</g>
				<g id="Layer">
					<g id="Layer">
						<path id="Layer" class="s9" d="m130.5 293.2q0 0 1.1 0.1 1.2 0.1 3.2 0.2c2.8 0.3 6.8 0.7 11.5 1.1h0.2v0.2c-0.5 3.7-0.9 7.8-1.5 12.2v0.1l-0.1 0.1q-1.2 1-2.5 2-3.3 2.6-6.3 5l-0.2 0.2-0.2-0.2c-2.5-3.2-4.9-6.2-6.9-8.7v-0.1-0.1c0.5-3.6 0.9-6.7 1.2-8.9q0.2-1.4 0.4-2.4 0.1-0.8 0.1-0.8 0 0.1-0.1 0.9-0.1 1-0.2 2.5c-0.2 2.2-0.6 5.2-1 8.8v-0.2c2 2.6 4.4 5.5 6.9 8.7l-0.3-0.1q3-2.4 6.2-5 1.4-1 2.6-2l-0.1 0.2c0.5-4.5 1.1-8.6 1.5-12.2l0.2 0.3c-4.6-0.6-8.5-1-11.3-1.3q-2-0.3-3.2-0.4-1.2-0.1-1.2-0.2z"/>
					</g>
				</g>
				<g id="Layer">
					<g id="Layer">
						<path id="Layer" class="s9" d="m166.7 321.7c-0.1 0.1-1.1-0.4-2.7-1.3-1.6-0.8-3.9-2-6.4-3.3-2.5-1.2-4.8-2.3-6.4-3.1-1.7-0.8-2.7-1.3-2.7-1.4 0 0 1.1 0.4 2.8 1.1 1.7 0.7 4 1.7 6.6 3 2.5 1.2 4.7 2.4 6.3 3.4 1.6 0.9 2.5 1.6 2.5 1.6z"/>
					</g>
				</g>
				<g id="Layer">
					<g id="Layer">
						<path id="Layer" class="s9" d="m165.9 326.3c0 0-0.8-0.2-2-0.8-1.2-0.6-2.8-1.6-4.2-3-1.5-1.5-2.5-3-3.1-4.2-0.7-1.2-0.9-2-0.8-2 0.1-0.1 1.4 3 4.3 5.8 2.8 2.8 5.9 4 5.8 4.2z"/>
					</g>
				</g>
				<g id="Layer">
					<g id="Layer">
						<path id="Layer" class="s9" d="m182.6 380.5c0 0 0 0.4-0.3 1-0.2 0.6-0.6 1.5-1.2 2.5-1.2 2-3.5 4.4-6.9 5.9-3.3 1.4-6.8 1.3-9 0.8-1.2-0.3-2.1-0.6-2.7-0.9-0.6-0.2-0.9-0.4-0.9-0.5 0.1 0 1.4 0.6 3.6 1 2.3 0.4 5.6 0.4 8.8-0.9 3.2-1.4 5.5-3.8 6.8-5.6 1.3-1.9 1.7-3.3 1.8-3.3z"/>
					</g>
				</g>
				<g id="Layer">
					<g id="Layer">
						<path id="Layer" class="s9" d="m178.7 378.9c0 0.1-0.8 0.5-2.2 1-1.5 0.5-3.6 0.9-5.9 1-2.4 0.1-4.5-0.1-6-0.4-1.5-0.2-2.4-0.5-2.4-0.5 0.1-0.2 3.8 0.5 8.4 0.3 2.2-0.1 4.3-0.4 5.8-0.8 1.4-0.3 2.3-0.7 2.3-0.6z"/>
					</g>
				</g>
				<g id="Layer">
					<g id="Layer">
						<path id="Layer" class="s9" d="m134.8 380c0 0.1-0.7 0.8-2.1 1.9-1.4 1-3.4 2.3-5.9 3.2-2.5 0.9-4.8 1.3-6.5 1.4-1.8 0.1-2.8 0-2.8 0 0-0.1 1-0.2 2.7-0.4 1.7-0.2 4-0.6 6.4-1.5 2.4-0.9 4.5-2.1 5.9-3 1.4-1 2.2-1.6 2.3-1.6z"/>
					</g>
				</g>
				<g id="Layer">
					<g id="Layer">
						<path id="Layer" class="s9" d="m129.6 379.8c0 0.1-2.4 0.7-5.5 0.4-3-0.2-5.3-1.1-5.2-1.3 0-0.1 2.3 0.6 5.3 0.8 2.9 0.2 5.3-0.1 5.4 0.1z"/>
					</g>
				</g>
				<g id="Layer">
					<g id="Layer">
						<path id="Layer" class="s9" d="m153.2 316.2c0 0-1 0.5-2.7 1.2-1.7 0.6-4.1 1.3-6.8 1.7-2.8 0.5-5.3 0.6-7.1 0.5-1.8-0.1-2.9-0.3-2.9-0.3 0-0.1 1.2-0.1 2.9-0.1 1.8 0 4.3-0.2 7-0.6 2.7-0.4 5.1-1.1 6.8-1.6 1.7-0.5 2.7-0.9 2.8-0.8z"/>
					</g>
				</g>
				<g id="Layer">
					<g id="Layer">
						<g id="Layer">
							<path id="Layer" class="s9" d="m151.5 310.1c0.2 0 0.3 0.5 0.3 1 0 0.6-0.1 1.1-0.2 1.1-0.2 0-0.3-0.5-0.3-1.1 0-0.5 0.1-1 0.2-1z"/>
						</g>
					</g>
					<g id="Layer">
						<g id="Layer">
							<path id="Layer" class="s9" d="m151.5 305.9c0.2 0 0.3 0.5 0.3 1.1 0 0.6-0.1 1-0.3 1-0.1 0-0.2-0.4-0.2-1 0-0.6 0.1-1.1 0.2-1.1z"/>
						</g>
					</g>
					<g id="Layer">
						<g id="Layer">
							<path id="Layer" class="s9" d="m151.6 301.8c0.2 0 0.3 0.5 0.3 1 0 0.6-0.2 1.1-0.3 1.1-0.2 0-0.3-0.5-0.3-1.1 0.1-0.6 0.2-1 0.3-1z"/>
						</g>
					</g>
					<g id="Layer">
						<g id="Layer">
							<path id="Layer" class="s9" d="m151.8 297.6c0.1 0 0.2 0.5 0.2 1.1 0 0.6-0.1 1-0.3 1-0.1 0-0.2-0.5-0.2-1 0-0.6 0.2-1.1 0.3-1.1z"/>
						</g>
					</g>
					<g id="Layer">
						<g id="Layer">
							<path id="Layer" class="s9" d="m152 293.5c0.2 0 0.3 0.5 0.3 1-0.1 0.6-0.2 1.1-0.4 1.1-0.1-0.1-0.2-0.5-0.2-1.1 0-0.6 0.2-1 0.3-1z"/>
						</g>
					</g>
					<g id="Layer">
						<g id="Layer">
							<path id="Layer" class="s9" d="m152.4 289.3c0.1 0 0.2 0.5 0.2 1.1-0.1 0.6-0.3 1-0.4 1-0.1 0-0.2-0.5-0.2-1.1 0.1-0.5 0.2-1 0.4-1z"/>
						</g>
					</g>
					<g id="Layer">
						<g id="Layer">
							<path id="Layer" class="s9" d="m152.7 285.9c0.2 0.1 0.2 0.4 0.2 0.7 0 0.4-0.2 0.7-0.3 0.7-0.2 0-0.3-0.4-0.2-0.7 0-0.4 0.2-0.7 0.3-0.7z"/>
						</g>
					</g>
				</g>
				<g id="Layer">
					<g id="Layer">
						<g id="Layer">
							<path id="Layer" class="s9" d="m119.3 465.1c0.1 0 0.1 0.5 0 1-0.1 0.6-0.3 1-0.4 1-0.2 0-0.2-0.5-0.1-1.1 0.1-0.5 0.3-1 0.5-0.9z"/>
						</g>
					</g>
					<g id="Layer">
						<g id="Layer">
							<path id="Layer" class="s9" d="m120.1 461c0.1 0 0.2 0.5 0 1.1-0.1 0.5-0.3 1-0.4 0.9-0.2 0-0.2-0.5-0.1-1 0.1-0.6 0.3-1 0.5-1z"/>
						</g>
					</g>
					<g id="Layer">
						<g id="Layer">
							<path id="Layer" class="s9" d="m120.9 456.9c0.2 0 0.2 0.5 0.1 1.1-0.1 0.5-0.4 1-0.5 0.9-0.1 0-0.2-0.5-0.1-1 0.1-0.6 0.4-1 0.5-1z"/>
						</g>
					</g>
					<g id="Layer">
						<g id="Layer">
							<path id="Layer" class="s9" d="m121.7 452.8c0.2 0.1 0.2 0.5 0.1 1.1-0.1 0.6-0.3 1-0.5 1-0.1-0.1-0.2-0.5-0.1-1.1 0.2-0.6 0.4-1 0.5-1z"/>
						</g>
					</g>
					<g id="Layer">
						<g id="Layer">
							<path id="Layer" class="s9" d="m122.5 448.8c0.2 0 0.2 0.5 0.1 1-0.1 0.6-0.3 1-0.5 1-0.1 0-0.1-0.5 0-1.1 0.1-0.5 0.3-1 0.4-0.9z"/>
						</g>
					</g>
					<g id="Layer">
						<g id="Layer">
							<path id="Layer" class="s9" d="m123.3 444.7c0.2 0 0.2 0.5 0.1 1.1-0.1 0.5-0.3 0.9-0.5 0.9-0.1 0-0.1-0.5 0-1.1 0.1-0.5 0.3-0.9 0.4-0.9z"/>
						</g>
					</g>
					<g id="Layer">
						<g id="Layer">
							<path id="Layer" class="s9" d="m124.2 440.6c0.1 0 0.1 0.5 0 1.1-0.1 0.5-0.3 1-0.4 0.9-0.2 0-0.2-0.5-0.1-1 0.1-0.6 0.3-1 0.5-1z"/>
						</g>
					</g>
					<g id="Layer">
						<g id="Layer">
							<path id="Layer" class="s9" d="m125 436.5c0.1 0.1 0.2 0.5 0 1.1-0.1 0.6-0.3 1-0.4 1-0.2-0.1-0.2-0.5-0.1-1.1 0.1-0.6 0.3-1 0.5-1z"/>
						</g>
					</g>
					<g id="Layer">
						<g id="Layer">
							<path id="Layer" class="s9" d="m125.8 432.5c0.1 0 0.2 0.5 0.1 1-0.2 0.6-0.4 1-0.5 1-0.2 0-0.2-0.5-0.1-1.1 0.1-0.5 0.4-1 0.5-0.9z"/>
						</g>
					</g>
					<g id="Layer">
						<g id="Layer">
							<path id="Layer" class="s9" d="m126.6 428.4c0.2 0 0.2 0.5 0.1 1-0.1 0.6-0.3 1-0.5 1-0.1 0-0.2-0.5-0.1-1.1 0.2-0.5 0.4-1 0.5-0.9z"/>
						</g>
					</g>
					<g id="Layer">
						<g id="Layer">
							<path id="Layer" class="s9" d="m127.4 424.3c0.2 0 0.2 0.5 0.1 1.1-0.1 0.5-0.3 1-0.5 0.9-0.1 0-0.2-0.5 0-1 0.1-0.6 0.3-1 0.4-1z"/>
						</g>
					</g>
					<g id="Layer">
						<g id="Layer">
							<path id="Layer" class="s9" d="m128.2 420.2c0.2 0.1 0.2 0.5 0.1 1.1-0.1 0.6-0.3 1-0.5 1-0.1-0.1-0.1-0.5 0-1.1 0.1-0.6 0.3-1 0.4-1z"/>
						</g>
					</g>
					<g id="Layer">
						<g id="Layer">
							<path id="Layer" class="s9" d="m129.1 416.1c0.1 0.1 0.1 0.6 0 1.1-0.1 0.6-0.3 1-0.4 1-0.2 0-0.2-0.5-0.1-1.1 0.1-0.6 0.3-1 0.5-1z"/>
						</g>
					</g>
					<g id="Layer">
						<g id="Layer">
							<path id="Layer" class="s9" d="m129.9 412.1c0.1 0 0.1 0.5 0 1-0.1 0.6-0.3 1-0.4 1-0.2 0-0.2-0.5-0.1-1.1 0.1-0.5 0.3-1 0.5-0.9z"/>
						</g>
					</g>
					<g id="Layer">
						<g id="Layer">
							<path id="Layer" class="s9" d="m130.7 408c0.1 0 0.2 0.5 0.1 1.1-0.2 0.5-0.4 1-0.5 0.9-0.2 0-0.2-0.5-0.1-1 0.1-0.6 0.3-1 0.5-1z"/>
						</g>
					</g>
					<g id="Layer">
						<g id="Layer">
							<path id="Layer" class="s9" d="m131.5 403.9c0.2 0 0.2 0.5 0.1 1.1-0.1 0.6-0.4 1-0.5 1-0.1-0.1-0.2-0.6-0.1-1.1 0.1-0.6 0.4-1 0.5-1z"/>
						</g>
					</g>
					<g id="Layer">
						<g id="Layer">
							<path id="Layer" class="s9" d="m132.3 399.8c0.2 0.1 0.2 0.5 0.1 1.1-0.1 0.6-0.3 1-0.5 1-0.1-0.1-0.2-0.5 0-1.1 0.1-0.6 0.3-1 0.4-1z"/>
						</g>
					</g>
					<g id="Layer">
						<g id="Layer">
							<path id="Layer" class="s9" d="m133.1 395.8c0.2 0 0.2 0.5 0.1 1-0.1 0.6-0.3 1-0.5 1-0.1 0-0.1-0.5 0-1.1 0.1-0.5 0.3-1 0.4-0.9z"/>
						</g>
					</g>
					<g id="Layer">
						<g id="Layer">
							<path id="Layer" class="s9" d="m134 391.7c0.1 0 0.1 0.5 0 1.1-0.1 0.5-0.3 1-0.5 0.9-0.1 0-0.1-0.5 0-1 0.1-0.6 0.3-1 0.5-1z"/>
						</g>
					</g>
					<g id="Layer">
						<g id="Layer">
							<path id="Layer" class="s9" d="m134.8 387.6c0.1 0 0.1 0.5 0 1.1-0.1 0.5-0.3 1-0.4 0.9-0.2 0-0.2-0.5-0.1-1 0.1-0.6 0.3-1 0.5-1z"/>
						</g>
					</g>
					<g id="Layer">
						<g id="Layer">
							<path id="Layer" class="s9" d="m135.6 383.5c0.1 0.1 0.2 0.5 0 1.1-0.1 0.6-0.3 1-0.4 1-0.2-0.1-0.2-0.5-0.1-1.1 0.1-0.6 0.3-1 0.5-1z"/>
						</g>
					</g>
					<g id="Layer">
						<g id="Layer">
							<path id="Layer" class="s9" d="m136.4 379.5c0.1 0 0.2 0.5 0.1 1-0.2 0.6-0.4 1-0.5 1-0.2 0-0.2-0.5-0.1-1.1 0.1-0.5 0.4-1 0.5-0.9z"/>
						</g>
					</g>
					<g id="Layer">
						<g id="Layer">
							<path id="Layer" class="s9" d="m137.2 375.4c0.2 0 0.2 0.5 0.1 1.1-0.1 0.5-0.3 0.9-0.5 0.9-0.1 0-0.2-0.5-0.1-1.1 0.2-0.5 0.4-0.9 0.5-0.9z"/>
						</g>
					</g>
					<g id="Layer">
						<g id="Layer">
							<path id="Layer" class="s9" d="m138 371.3c0.2 0 0.2 0.5 0.1 1.1-0.1 0.5-0.3 1-0.5 0.9-0.1 0-0.2-0.5 0-1 0.1-0.6 0.3-1 0.4-1z"/>
						</g>
					</g>
					<g id="Layer">
						<g id="Layer">
							<path id="Layer" class="s9" d="m138.8 367.2c0.2 0.1 0.2 0.5 0.1 1.1-0.1 0.6-0.3 1-0.5 1-0.1-0.1-0.1-0.5 0-1.1 0.1-0.6 0.3-1 0.4-1z"/>
						</g>
					</g>
					<g id="Layer">
						<g id="Layer">
							<path id="Layer" class="s9" d="m139.7 363.2c0.1 0 0.1 0.5 0 1-0.1 0.6-0.3 1-0.4 1-0.2 0-0.2-0.5-0.1-1.1 0.1-0.5 0.3-1 0.5-0.9z"/>
						</g>
					</g>
					<g id="Layer">
						<g id="Layer">
							<path id="Layer" class="s9" d="m140.5 359.1c0.1 0 0.1 0.5 0 1-0.1 0.6-0.3 1-0.4 1-0.2 0-0.2-0.5-0.1-1.1 0.1-0.5 0.3-1 0.5-0.9z"/>
						</g>
					</g>
					<g id="Layer">
						<g id="Layer">
							<path id="Layer" class="s9" d="m141.3 355c0.1 0 0.2 0.5 0.1 1.1-0.2 0.5-0.4 1-0.5 0.9-0.2 0-0.2-0.5-0.1-1 0.1-0.6 0.3-1 0.5-1z"/>
						</g>
					</g>
					<g id="Layer">
						<g id="Layer">
							<path id="Layer" class="s9" d="m142.1 350.9c0.2 0.1 0.2 0.5 0.1 1.1-0.1 0.6-0.4 1-0.5 1-0.1-0.1-0.2-0.5-0.1-1.1 0.1-0.6 0.4-1 0.5-1z"/>
						</g>
					</g>
					<g id="Layer">
						<g id="Layer">
							<path id="Layer" class="s9" d="m142.9 346.8c0.2 0.1 0.2 0.6 0.1 1.1-0.1 0.6-0.3 1-0.5 1-0.1 0-0.2-0.5 0-1.1 0.1-0.6 0.3-1 0.4-1z"/>
						</g>
					</g>
					<g id="Layer">
						<g id="Layer">
							<path id="Layer" class="s9" d="m143.7 342.8c0.2 0 0.2 0.5 0.1 1-0.1 0.6-0.3 1-0.5 1-0.1 0-0.1-0.5 0-1.1 0.1-0.5 0.3-1 0.4-0.9z"/>
						</g>
					</g>
					<g id="Layer">
						<g id="Layer">
							<path id="Layer" class="s9" d="m144.6 338.7c0.1 0 0.1 0.5 0 1.1-0.1 0.5-0.3 1-0.5 0.9-0.1 0-0.1-0.5 0-1 0.1-0.6 0.3-1 0.5-1z"/>
						</g>
					</g>
					<g id="Layer">
						<g id="Layer">
							<path id="Layer" class="s9" d="m145.4 334.6c0.1 0 0.1 0.5 0 1.1-0.1 0.6-0.3 1-0.4 1-0.2-0.1-0.2-0.6-0.1-1.1 0.1-0.6 0.3-1 0.5-1z"/>
						</g>
					</g>
					<g id="Layer">
						<g id="Layer">
							<path id="Layer" class="s9" d="m146.2 330.5c0.1 0.1 0.2 0.5 0 1.1-0.1 0.6-0.3 1-0.4 1-0.2-0.1-0.2-0.5-0.1-1.1 0.1-0.6 0.3-1 0.5-1z"/>
						</g>
					</g>
					<g id="Layer">
						<g id="Layer">
							<path id="Layer" class="s9" d="m147 326.5c0.1 0 0.2 0.5 0.1 1-0.2 0.6-0.4 1-0.5 1-0.2 0-0.2-0.5-0.1-1.1 0.1-0.5 0.4-1 0.5-0.9z"/>
						</g>
					</g>
					<g id="Layer">
						<g id="Layer">
							<path id="Layer" class="s9" d="m147.8 322.4c0.2 0 0.2 0.5 0.1 1.1-0.1 0.5-0.3 1-0.5 0.9-0.1 0-0.2-0.5-0.1-1 0.2-0.6 0.4-1 0.5-1z"/>
						</g>
					</g>
					<g id="Layer">
						<g id="Layer">
							<path id="Layer" class="s9" d="m148.6 318.3c0.2 0 0.2 0.5 0.1 1.1-0.1 0.5-0.3 1-0.5 0.9-0.1 0-0.2-0.5 0-1 0.1-0.6 0.3-1 0.4-1z"/>
						</g>
					</g>
				</g>
			</g>
			<g id="Layer">
				<g id="Layer">
					<g id="Layer">
						<path id="Layer" class="s10" d="m230.1 192.6c0 0 7-10.4 7.1-10.5 0 0 6.3-10.5 8.4-10.5 2.1 0 1.3 2.1-0.8 5.9-1.9 3.3-2.1 5.4-2.1 5.4l5.1 3.1c0 0 3.4-1.4 3.6 1.8 0 1.1-0.3 2.4-0.6 4.4-0.2 1.1-0.7 2.3-1.8 1.9-0.5-0.2-0.9-0.6-0.9-1.3-0.1-1.9 0.3-2.6 0-2.6-0.3 0-3.7 9.9-3.7 9.9z"/>
					</g>
					<g id="Layer">
						<path id="Layer" class="s10" d="m244.1 184.5c0.5-0.4 1.1-0.8 1.7-1 0.5-0.3 1.2-0.4 1.8-0.3 0.4 0 0.8 0.2 1.1 0.5 0.3 0.5 0.3 1.1 0.2 1.6-0.2 0.5-0.5 1-0.9 1.4"/>
					</g>
					<g id="Layer">
						<path id="Layer" class="s10" d="m241.8 182.4c0.5-0.4 1-0.7 1.5-1 0.6-0.2 1.2-0.3 1.8-0.2 0.4 0 0.8 0.2 1 0.5 0.3 0.4 0.3 1 0.2 1.5-0.2 0.5-1.3 1.6-1.6 2"/>
					</g>
				</g>
				<g id="Layer">
					<path id="Layer" class="s10" d="m232.6 186.7l-10 21.4 11 11.3 5.7-15.9c0 0 3.1 0.6 4.4-1.5 1.4-2.3 3.2-8.8 3.2-8.8z"/>
				</g>
				<g id="Layer">
					<g id="Layer">
						<path id="Layer" class="s11" d="m239.7 186.1c-0.1 0 0.1-1.4 1.2-2.9 0.5-0.7 1.2-1.2 1.7-1.5 0.5-0.3 0.9-0.4 0.9-0.3 0.1 0.1-1.2 0.8-2.2 2.1-0.9 1.4-1.4 2.7-1.6 2.6z"/>
					</g>
				</g>
				<g id="Layer">
					<g id="Layer">
						<path id="Layer" class="s11" d="m250.8 186.2c-0.1 0.1-0.4-0.1-1-0.2-0.5-0.1-1.4-0.1-2.2 0.4-0.7 0.4-1.2 1.1-1.6 1.6-0.3 0.5-0.6 0.8-0.6 0.7-0.1 0 0-0.4 0.3-0.9 0.3-0.6 0.8-1.4 1.7-1.9 0.9-0.5 1.9-0.5 2.5-0.2 0.7 0.2 0.9 0.5 0.9 0.5z"/>
					</g>
				</g>
				<g id="Layer">
					<g id="Layer">
						<path id="Layer" class="s11" d="m247.1 183.2c0 0.2-1.3 0.4-2.4 1.4-1.1 1-1.6 2.2-1.8 2.1-0.1-0.1 0.2-1.4 1.5-2.5 0.6-0.5 1.3-0.9 1.8-1 0.5-0.1 0.9 0 0.9 0z"/>
					</g>
				</g>
				<g id="Layer">
					<g id="Layer">
						<path id="Layer" class="s11" d="m249.5 187.8c0.2 0 0.4 0.8-0.1 1.6-0.5 0.9-1.4 1-1.4 0.9 0-0.2 0.6-0.5 0.9-1.1 0.5-0.7 0.5-1.3 0.6-1.4z"/>
					</g>
				</g>
				<g id="Layer">
					<path id="Layer" class="s10" d="m230.2 192.2c0 0-0.4-6.4 1.2-7.8 1.5-1.5 5.9 0 5.9 0"/>
				</g>
				<g id="Layer">
					<g id="Layer">
						<path id="Layer" class="s11" d="m237.9 181.4c0.2 0.1-0.9 1.7-2.2 3.6-1.4 1.9-2.6 3.4-2.8 3.3-0.1-0.1 0.9-1.7 2.3-3.6 1.4-1.9 2.6-3.4 2.7-3.3z"/>
					</g>
				</g>
			</g>
			<g id="Layer">
				<g id="Layer">
					<g id="Layer">
						<g id="Layer">
							<g id="Layer">
								<path id="Layer" class="s10" d="m149.4 133l-0.1 49.8 21.3 1 0.7-12.1c0 0 7.5 1.5 9.5-5.6 1.3-4.5 0.9-39.2 0.9-39.2z"/>
							</g>
						</g>
						<g id="Layer">
							<g id="Layer">
								<path id="Layer" class="s4" d="m184.6 130.4c-3.4 0.9-4.1 6.4-4.1 6.4l-5.3 11.7c-2.7-2.1-6.3-2-7 2.7-0.5 3.4 3.7 4.1 3.7 4.1-2.4 4.2-4.1 7.6-7.7 11.6-3.9 4.4-6.1 4.8-10.3 4.9h-4.7c0 0-2.2-7.4-6.5-25.9-4.6-20.6 19.6-17.9 24.1-23.2 7.4-8.5 28.4 4.6 17.8 7.7z"/>
							</g>
						</g>
					</g>
				</g>
				<g id="Layer">
					<path id="Layer" class="s4" d="m143.2 147.8c-3.9-2.6-4.3-10-2-14.5 2.3-4.4 7.1-7.4 12.1-7.5 0.7 0 1.4 0 2-0.2 0.9-0.4 1.5-1.3 2.1-2 3.5-4.6 7-9.1 13.6-9.1 1 0 2.2 0 4.1 1 0.9 0.5 2.2 2.2 2.4 3.3 1.3-0.6 2.5-1.2 3.9-1.4 1.3-0.2 2.8 0 3.8 0.9 1 1 1.4 2.6 0.6 3.7 2.2-0.1 4.3 1.7 4.7 3.9 0.3 2.2-2.8 3.7-3.1 3.9 0 0 1.7 3.6-2.4 5.8-1.7 0.8-3.8-0.2-4.1-0.3"/>
				</g>
				<g id="Layer">
					<g id="Layer">
						<path id="Layer" class="s9" d="m158.8 152.6c0.1 0 0.3 1.7-0.1 3.8-0.5 2-1.4 3.5-1.5 3.4-0.2 0 0.5-1.6 0.9-3.5 0.5-2 0.5-3.7 0.7-3.7z"/>
					</g>
				</g>
				<g id="Layer">
					<g id="Layer">
						<path id="Layer" class="s9" d="m161.4 150.1c0.1 0.1 0.1 1.7-0.2 3.7-0.4 2-1 3.5-1.2 3.5-0.1-0.1 0.3-1.7 0.6-3.6 0.4-2 0.6-3.6 0.8-3.6z"/>
					</g>
				</g>
				<g id="Layer">
					<g id="Layer">
						<path id="Layer" class="s9" d="m168.8 141.9c0 0.1-0.6 0.5-1.4 1.4-0.7 0.9-1.6 2.3-2.3 4-0.6 1.7-1 3.3-1.2 4.5-0.3 1.2-0.5 1.9-0.6 1.9 0 0 0-0.8 0.2-2 0.2-1.2 0.5-2.8 1.1-4.6 0.7-1.7 1.7-3.2 2.6-4 0.8-0.9 1.5-1.2 1.6-1.2z"/>
					</g>
				</g>
				<g id="Layer">
					<g id="Layer">
						<path id="Layer" class="s9" d="m171.8 136.3c0 0 0.2 0.5 0.4 1.4 0.1 0.8 0.1 2.1-0.2 3.4-0.3 1.3-0.9 2.4-1.5 3.1-0.5 0.7-0.9 1-1 1-0.1-0.1 1.4-1.8 2-4.3 0.6-2.4 0.1-4.5 0.3-4.6z"/>
					</g>
				</g>
				<g id="Layer">
					<g id="Layer">
						<path id="Layer" class="s9" d="m146.3 148.8c-0.1 0.1-0.8-0.1-1.5-0.5-0.7-0.4-1.3-0.9-1.2-1 0.1-0.1 0.7 0.1 1.5 0.5 0.7 0.4 1.2 0.8 1.2 1z"/>
					</g>
				</g>
				<g id="Layer">
					<g id="Layer">
						<path id="Layer" class="s9" d="m156.6 143.5c0.1 0 0 1-0.6 2.1-0.7 1.1-1.6 1.7-1.7 1.6-0.1-0.2 0.6-0.9 1.2-1.9 0.6-1 0.9-1.9 1.1-1.8z"/>
					</g>
				</g>
				<g id="Layer">
					<g id="Layer">
						<path id="Layer" class="s9" d="m159.8 141.8c0.1 0-0.1 1.2-1 2.5-0.8 1.3-1.9 2-2 1.9-0.1-0.1 0.8-0.9 1.6-2.2 0.8-1.2 1.2-2.3 1.4-2.3z"/>
					</g>
				</g>
				<g id="Layer">
					<g id="Layer">
						<path id="Layer" class="s9" d="m175.5 120.9c0 0-0.4-0.3-1.1-0.7-0.8-0.5-2-0.9-3.6-1-1.6 0-3.5 0.3-5.3 1.4-1.7 1.1-3.3 2.9-4.4 5-0.9 1.6-1.4 3.2-1.9 4.7v0.3l-0.3-0.1c-1.6-0.9-3.3-1.2-4.8-1.3-1.5 0-2.8 0.3-3.9 0.6-2.1 0.7-3.1 1.7-3.1 1.6-0.1 0 0.2-0.3 0.7-0.6 0.5-0.4 1.2-0.9 2.3-1.3 1.1-0.4 2.4-0.7 4-0.7 1.6 0 3.3 0.3 5 1.2l-0.4 0.2c0.5-1.6 1-3.2 1.9-4.8 1.2-2.2 2.8-4.1 4.7-5.2 1.9-1.1 3.9-1.5 5.5-1.4 1.6 0.1 2.9 0.7 3.7 1.2q0.5 0.4 0.8 0.6 0.3 0.3 0.2 0.3z"/>
					</g>
				</g>
				<g id="Layer">
					<g id="Layer">
						<path id="Layer" class="s9" d="m186.8 123.6c-0.1 0 0.6-0.2 1.2 0.6 0.3 0.3 0.6 0.8 0.5 1.5-0.1 0.7-0.5 1.4-1.3 1.8-0.7 0.4-1.6 0.6-2.5 0.4-1-0.3-1.9-0.7-2.7-1.3-0.9-0.6-1.7-1.3-2.6-1.8-1-0.6-2.1-0.9-3.2-1.2-2.3-0.4-4.5-0.1-6.4 0.5-2 0.6-3.6 1.5-4.8 2.4-2.5 1.8-3.7 3.3-3.8 3.2 0 0 0.3-0.4 0.8-1 0.6-0.7 1.5-1.6 2.8-2.5 1.2-0.9 2.8-1.9 4.8-2.6 2-0.6 4.3-0.9 6.7-0.5 1.2 0.2 2.3 0.6 3.3 1.2 1 0.5 1.8 1.3 2.7 1.8 0.8 0.6 1.6 1.1 2.4 1.3 0.9 0.2 1.7 0.1 2.4-0.2 0.6-0.4 1-1 1.1-1.5 0.1-0.6-0.1-1.1-0.4-1.4-0.5-0.7-1.1-0.6-1-0.7z"/>
					</g>
				</g>
			</g>
			<g id="Layer">
				<g id="Layer">
					<g id="Layer">
						<g id="Layer">
							<path id="Layer" class="s12" d="m126.7 188l-19.1 32c-2.1 3.8-4.1 7.8-6 11.9-1.5 4-0.6 9.1 2 12.4l-0.5-0.8c2.1 2.6 5.3 4.2 8.7 4.2h0.4c4.5 0 8.5-2.7 10.3-6.7l6.1-9.3z"/>
						</g>
					</g>
					<g id="Layer">
						<g id="Layer">
							<path id="Layer" class="s13" d="m184.3 181.9c-5.2-2.6-10.2-3.2-15.7-3.4-6.5-0.2-15.5-1.1-22.4-0.3 0 0-19.8 1.4-21.1 14.9l2.6 63.5-4.5 26.9 63.3 2-0.5-31.8c0.8-16.5-0.9-39.9-0.9-39.9 1-8.9 5.8-12.9 6.5-18.6 0.6-5.1-2.8-11-7.3-13.3z"/>
						</g>
					</g>
					<g id="Layer">
						<g id="Layer">
							<g id="Layer">
								<path id="Layer" class="s4" d="m166.4 257.6c0.1 0-0.3 0.3-0.9 0.8-0.6 0.6-1.6 1.3-2.9 2-2.5 1.5-6.5 3-11 3.1-4.6 0-8.6-1.3-11.2-2.7-1.3-0.7-2.3-1.4-2.9-1.9-0.7-0.5-1-0.8-1-0.8 0.1-0.1 1.5 1.1 4.1 2.4 2.6 1.2 6.5 2.5 11 2.4 4.4-0.1 8.3-1.5 10.8-2.8 2.6-1.4 4-2.6 4-2.5z"/>
							</g>
						</g>
					</g>
					<g id="Layer">
						<g id="Layer">
							<g id="Layer">
								<path id="Layer" class="s4" d="m125 193.9q0 0 0 0.6 0.1 0.7 0.1 1.8c0.1 1.6 0.2 3.8 0.3 6.5 0.3 5.6 0.6 13.1 0.9 21.5 0.4 8.4 0.8 16 1 21.6 0.2 2.7 0.3 4.9 0.4 6.5q0 1.1 0 1.8 0 0.6 0 0.6 0 0-0.1-0.6 0-0.7-0.2-1.8c-0.1-1.5-0.3-3.8-0.5-6.5-0.3-5.5-0.7-13.1-1.1-21.5-0.3-8.5-0.6-16.1-0.7-21.6-0.1-2.7-0.1-4.9-0.2-6.5q0-1.1 0-1.8 0-0.6 0.1-0.6z"/>
							</g>
						</g>
					</g>
					<g id="Layer">
						<g id="Layer">
							<g id="Layer">
								<path id="Layer" class="s4" d="m121 197.2q0 0-0.2 0.5-0.3 0.6-0.7 1.4c-0.7 1.2-1.6 2.9-2.8 4.9-2.4 4.2-6 9.7-9.7 16-1.8 3.2-3.4 6.3-4.7 9.2-1.3 2.8-2 5.6-1.8 8 0.1 2.3 0.8 4.2 1.4 5.3 0.7 1.2 1.2 1.8 1.1 1.8q0 0-0.4-0.4c-0.2-0.3-0.5-0.7-0.9-1.3-0.7-1.1-1.4-3-1.6-5.4-0.3-2.4 0.4-5.3 1.7-8.2 1.4-2.9 2.9-6.1 4.7-9.2 3.7-6.4 7.4-11.9 9.8-16 1.2-2 2.2-3.6 3-4.8q0.5-0.8 0.8-1.3 0.3-0.5 0.3-0.5z"/>
							</g>
						</g>
					</g>
					<g id="Layer">
						<g id="Layer">
							<g id="Layer">
								<path id="Layer" class="s12" d="m237.3 214.7l-14.6-9.6-9.3 16c0 0-12.8-17.8-18.6-28.2-5.3-9.6-12.3-12.2-15.6-12.9-1-0.2-1.9 0.6-1.8 1.6l5.1 34.6c0.6 1.8 11.2 17.1 17.1 24.8 9.8 12.9 24.3 4.7 28.3-4.3 3.2-7.2 8.1-18 9.4-22z"/>
							</g>
						</g>
						<g id="Layer">
							<g id="Layer">
								<g id="Layer">
									<path id="Layer" class="s4" d="m217.6 235.5c0 0-0.1-0.9-0.2-2.3-0.2-1.4-0.3-3.3-0.7-5.4-0.5-2.1-1.2-3.9-1.9-5.1-0.7-1.2-1.3-1.9-1.2-2 0 0 0.7 0.6 1.5 1.8 0.8 1.2 1.6 3 2.1 5.2 0.4 2.1 0.5 4.1 0.5 5.5 0.1 1.4 0 2.3-0.1 2.3z"/>
								</g>
							</g>
						</g>
						<g id="Layer">
							<g id="Layer">
								<g id="Layer">
									<path id="Layer" class="s4" d="m221.9 228.4c-0.1 0-0.1-0.8-0.5-1.9-0.4-1.1-1.1-2.6-2.3-3.9-1.3-1.3-2.8-2.1-3.9-2.2-1.2 0-1.8 0.5-1.9 0.4 0-0.1 0.6-0.7 1.9-0.7 1.3-0.1 3 0.7 4.3 2.1 1.3 1.4 2 3 2.3 4.2 0.3 1.2 0.2 2 0.1 2z"/>
								</g>
							</g>
						</g>
						<g id="Layer">
							<g id="Layer">
								<g id="Layer">
									<path id="Layer" class="s4" d="m178.2 184.3q0.1 0-0.3 0.4-0.2 0.2-0.5 0.4-0.2 0.3-0.5 0.7c-0.8 1-1.9 2.7-2.5 4.9-0.7 2.3-1 5.1-0.6 8.2 0.2 1.5 0.6 3.1 1.3 4.7 0.6 1.5 1.5 3.1 2.3 4.7 3.6 6.3 7.3 11.7 10 15.6 1.3 1.9 2.4 3.5 3.2 4.6 0.7 1.1 1.2 1.7 1.1 1.8q0 0-0.3-0.4-0.4-0.4-1-1.2c-0.8-1.1-2-2.6-3.4-4.6-2.7-3.8-6.5-9.2-10.1-15.6-0.8-1.6-1.7-3.1-2.3-4.7-0.7-1.6-1.1-3.3-1.3-4.8-0.4-3.2-0.1-6.1 0.7-8.4 0.7-2.3 1.8-3.9 2.7-4.9q0.4-0.4 0.6-0.7 0.3-0.2 0.5-0.4 0.4-0.4 0.4-0.3z"/>
								</g>
							</g>
						</g>
					</g>
					<g id="Layer">
						<g id="Layer">
							<g id="Layer">
								<path id="Layer" class="s4" d="m178.3 276.2q0 0-0.5 0.2-0.5 0.2-1.3 0.4-0.8 0.3-2.1 0.7c-0.8 0.2-1.7 0.5-2.8 0.7-2.1 0.5-4.6 1-7.5 1.4-2.8 0.3-5.9 0.6-9.3 0.6-3.3 0-6.4-0.2-9.2-0.6-2.9-0.3-5.4-0.8-7.5-1.3-1.1-0.2-2-0.5-2.8-0.7q-1.3-0.3-2.1-0.6-0.8-0.3-1.4-0.5-0.4-0.1-0.4-0.2 0 0 0.5 0.1 0.5 0.2 1.3 0.4 0.9 0.2 2.1 0.5c0.9 0.2 1.8 0.4 2.9 0.6 2.1 0.5 4.6 0.9 7.4 1.2 2.8 0.4 6 0.6 9.2 0.6 3.3-0.1 6.4-0.3 9.3-0.6 2.8-0.4 5.3-0.8 7.4-1.3 1.1-0.2 2-0.4 2.8-0.6q1.3-0.3 2.2-0.6 0.8-0.2 1.3-0.3 0.5-0.1 0.5-0.1z"/>
							</g>
						</g>
					</g>
				</g>
				<g id="Layer" style="opacity: .3">
					<path id="Layer" class="s14" d="m123.8 238.9l2.9-4.4-1.5-34.9z"/>
				</g>
				<g id="Layer" style="opacity: .3">
					<path id="Layer" class="s14" d="m173.1 197.2c0 0 0.1 12.7 3.1 17.8 2.9 5 9.8 15.9 9.8 15.3-0.1-0.7-0.4-9-0.4-9 0 0-12.4-17-12.5-24.1z"/>
				</g>
				<g id="Layer">
					<g id="Layer">
						<path id="Layer" class="s3" d="m121.3 240c0 0-0.3 0.2-0.9 0.2-0.6 0.1-1.6 0.1-2.6-0.3-1-0.4-2.2-1.1-3.2-2.1-1-1.1-1.9-2.5-2.7-3.9-0.8-1.4-1.5-2.8-2.3-3.9-0.8-1.2-1.8-2.1-2.6-2.7-1.8-1.2-3.2-1.1-3.2-1.2 0 0 0.3-0.1 1 0 0.6 0.1 1.4 0.3 2.4 0.9 0.9 0.6 1.9 1.5 2.8 2.7 0.8 1.1 1.6 2.5 2.4 4 0.8 1.4 1.6 2.7 2.6 3.7 0.9 1 2 1.8 2.9 2.2 2 0.8 3.4 0.3 3.4 0.4z"/>
					</g>
				</g>
				<g id="Layer">
					<g id="Layer">
						<path id="Layer" class="s3" d="m125.2 218.1c-0.1 0-0.3-0.8-1-1.9-0.6-1.1-1.6-2.6-3.2-3.8-1.5-1.1-3.2-1.8-4.5-2-1.2-0.3-2-0.3-2-0.4 0-0.1 0.8-0.2 2.1 0 1.3 0.2 3.1 0.8 4.7 2 1.6 1.3 2.7 2.8 3.3 4 0.5 1.2 0.6 2.1 0.6 2.1z"/>
					</g>
				</g>
				<g id="Layer">
					<g id="Layer">
						<path id="Layer" class="s3" d="m173.4 199.3c-0.1 0.1-0.7-0.1-2-0.2-1.2-0.1-3-0.1-5.2 0.5-2.2 0.5-4.6 1.5-7.2 2.9-2.7 1.3-5.4 3.1-8.6 4.5-3.1 1.5-6.4 2.2-9.4 2.4-3 0.2-5.7-0.2-7.9-0.7-2.2-0.6-3.8-1.3-5-1.9-0.5-0.2-1-0.5-1.2-0.7q-0.5-0.2-0.5-0.2c0.1-0.1 0.7 0.2 1.8 0.8 1.2 0.5 2.9 1.1 5 1.6 2.2 0.5 4.9 0.8 7.8 0.6 2.9-0.2 6.1-0.9 9.2-2.4 3.1-1.4 5.9-3.1 8.5-4.5 2.7-1.3 5.2-2.3 7.4-2.8 2.2-0.5 4.1-0.5 5.4-0.3q0.9 0.1 1.4 0.3 0.5 0.1 0.5 0.1z"/>
					</g>
				</g>
				<g id="Layer">
					<g id="Layer">
						<path id="Layer" class="s3" d="m185.7 233.9q0 0.1-0.6 0.2c-0.4 0.1-1 0.3-1.7 0.4-1.5 0.4-3.7 0.6-6.4 0.6-2.7-0.1-5.9-0.6-9.4-1.4-3.5-0.8-7.3-1.9-11.2-3.1-4-1.1-7.8-2-11.3-2.5-3.6-0.4-6.8-0.5-9.4-0.1-2.7 0.4-4.8 1.1-6.1 1.7-1.4 0.6-2.1 1-2.2 1q0 0 0.5-0.3c0.4-0.2 0.9-0.6 1.6-0.9 1.3-0.7 3.4-1.4 6.1-1.8 2.7-0.5 6-0.5 9.5-0.1 3.6 0.5 7.4 1.4 11.4 2.5 4 1.2 7.7 2.3 11.2 3.2 3.4 0.8 6.6 1.3 9.3 1.4 2.7 0.1 4.9-0.1 6.3-0.4 1.5-0.2 2.3-0.4 2.4-0.4z"/>
					</g>
				</g>
				<g id="Layer">
					<g id="Layer">
						<path id="Layer" class="s3" d="m186 253.7c0 0.2-3-1.7-8.3-2.2-2.7-0.3-5.9-0.2-9.4 0.3-3.5 0.5-7.3 1.3-11.3 2-4.1 0.8-7.9 1.4-11.5 1.8-3.5 0.3-6.8 0.3-9.5-0.1-2.6-0.4-4.8-0.9-6.2-1.5-0.7-0.2-1.2-0.5-1.6-0.7q-0.5-0.2-0.5-0.2c0-0.1 0.8 0.2 2.2 0.7 1.4 0.5 3.5 1 6.2 1.3 2.6 0.3 5.8 0.3 9.4 0 3.5-0.4 7.3-1 11.4-1.8 4-0.7 7.8-1.5 11.4-2 3.5-0.4 6.7-0.5 9.4-0.2 2.7 0.3 4.8 1 6.2 1.6 0.7 0.2 1.2 0.5 1.6 0.7q0.5 0.3 0.5 0.3z"/>
					</g>
				</g>
				<g id="Layer">
					<g id="Layer">
						<path id="Layer" class="s3" d="m153.5 279.2c0 0-0.4-0.2-1-0.6-0.6-0.5-1.5-1.1-2.6-1.8-2.3-1.5-5.5-3.4-9.2-5.3-3.7-1.8-7.2-3.1-9.8-3.9-1.2-0.4-2.3-0.8-3-1-0.7-0.2-1.1-0.4-1.1-0.4 0 0 0.4 0.1 1.1 0.2 0.8 0.2 1.8 0.4 3.2 0.8 2.6 0.8 6.1 2.1 9.8 3.9 3.8 1.8 7 3.8 9.2 5.4 1.1 0.8 1.9 1.4 2.5 1.9 0.6 0.5 0.9 0.8 0.9 0.8z"/>
					</g>
				</g>
				<g id="Layer">
					<g id="Layer">
						<path id="Layer" class="s3" d="m184.3 278.9c0 0-0.7 0.5-2.1 1-1.4 0.5-3.4 1-5.6 0.9-2.3-0.1-4.2-0.6-5.6-1.2-1.3-0.6-2-1.2-2-1.2 0-0.1 0.8 0.4 2.2 0.8 1.3 0.5 3.2 1 5.4 1.1 2.2 0 4.1-0.3 5.5-0.7 1.3-0.4 2.1-0.8 2.2-0.7z"/>
					</g>
				</g>
				<g id="Layer">
					<g id="Layer">
						<path id="Layer" class="s3" d="m206.2 212.9c0 0 0 0.3-0.2 0.8-0.1 0.6-0.5 1.4-1.1 2.2-0.7 0.8-1.6 1.6-2.8 2.3-1.2 0.7-2.6 1.2-4 1.8-1.5 0.6-2.8 1.2-3.8 2-1.1 0.7-1.8 1.7-2.3 2.6-0.9 1.7-0.5 3.1-0.6 3.1-0.1 0-0.2-0.3-0.2-0.9-0.1-0.6 0-1.5 0.5-2.4 0.4-1 1.2-2 2.3-2.8 1.1-0.9 2.4-1.5 3.9-2.1 1.4-0.6 2.8-1.1 3.9-1.7 1.2-0.7 2.1-1.4 2.8-2.2 1.4-1.4 1.5-2.8 1.6-2.7z"/>
					</g>
				</g>
				<g id="Layer">
					<g id="Layer">
						<path id="Layer" class="s3" d="m193.9 191.6q0 0.1-0.2 0.9-0.1 0.5-0.3 1.1c-0.1 0.4-0.3 0.8-0.5 1.3-0.4 1-1 2.1-1.8 3.3-0.8 1.1-1.8 2.3-3 3.5-1.2 1.1-2.4 2-3.6 2.7-1.3 0.7-2.4 1.3-3.4 1.6-0.5 0.2-1 0.3-1.4 0.5q-0.6 0.1-1.1 0.2-0.8 0.2-0.9 0.1c0-0.1 1.3-0.3 3.2-1.1 1-0.4 2.1-1 3.3-1.7 1.2-0.7 2.4-1.6 3.6-2.7 1.1-1.1 2.1-2.3 2.9-3.4 0.8-1.1 1.4-2.2 1.9-3.1 0.9-1.9 1.2-3.2 1.3-3.2z"/>
					</g>
				</g>
				<g id="Layer">
					<g id="Layer">
						<path id="Layer" class="s3" d="m174.6 178.5c0 0-0.5 0.3-1.4 0.7-1 0.4-2.4 0.9-4.1 1.4-1.8 0.6-3.9 1.1-6.3 1.6-2.3 0.4-5 0.8-7.8 1.1-2.8 0.1-5.4 0.1-7.9 0-2.4-0.1-4.6-0.3-6.4-0.6-1.8-0.3-3.2-0.6-4.2-0.8-1-0.3-1.6-0.4-1.5-0.5 0 0 0.5 0.1 1.5 0.3 1 0.2 2.5 0.4 4.3 0.6 1.8 0.3 4 0.5 6.4 0.6 2.4 0 5 0 7.8-0.2 2.8-0.2 5.4-0.6 7.8-1 2.3-0.4 4.4-0.9 6.2-1.4 1.7-0.5 3.1-1 4.1-1.3 1-0.4 1.5-0.5 1.5-0.5z"/>
					</g>
				</g>
				<g id="Layer">
					<g id="Layer">
						<path id="Layer" class="s3" d="m213.9 222c0.1 0 0.2 0.4 0.4 1 0.2 0.7 0.3 1.7 0.4 2.9 0.2 2.5-0.3 5.9-1 9.6-0.3 1.9-0.7 3.6-1.3 5.1-0.6 1.6-1.5 2.8-2.4 3.7-0.8 0.9-1.7 1.5-2.3 1.8-0.7 0.3-1.1 0.3-1.1 0.3 0-0.1 1.6-0.5 3.2-2.3 0.8-0.9 1.5-2.1 2.1-3.6 0.6-1.5 1-3.3 1.3-5.1 0.7-3.7 1.2-7 1.1-9.4 0-2.5-0.5-3.9-0.4-4z"/>
					</g>
				</g>
				<g id="Layer">
					<g id="Layer">
						<path id="Layer" class="s3" d="m234 224.6c-0.1 0-0.6-1-1.6-2.5-1.1-1.6-2.8-3.5-5.1-5.1-2.3-1.6-4.7-2.6-6.5-3-1.8-0.5-2.9-0.6-2.9-0.7q0 0 0.8 0c0.5 0 1.3 0.1 2.2 0.3 0.9 0.2 2 0.5 3.1 1 1.2 0.5 2.4 1.1 3.6 2 1.2 0.8 2.2 1.7 3.1 2.6 0.8 0.9 1.5 1.8 2 2.7 0.5 0.8 0.8 1.4 1 1.9q0.3 0.8 0.3 0.8z"/>
					</g>
				</g>
				<g id="Layer" style="opacity: .3">
					<g id="Layer">
						<path id="Layer" class="s14" d="m175.2 277c1.1-0.5 1.4-1.9 0.7-2.7-0.6-0.9-1.8-1-2.9-1-5.1 0.1-9.6 3.5-14.7 4.5-3.9 0.7-7.9-0.1-11.6-1.3-3.8-1.1-7.5-2.6-11.3-3.3-0.8-0.2-1.7-0.3-2.5-0.1-0.8 0.2-1.5 0.9-1.6 1.7-0.1 0.8 0.1 1.4 1.3 1.8 0 0 12.8 3.6 22.1 3.4 9.8-0.1 20.5-3 20.5-3z"/>
					</g>
				</g>
			</g>
		</g>
	</g>
	<g id="Plant">
		<g id="Layer">
			<g id="Layer">
				<g id="Layer">
					<path id="Layer" class="s4" d="m371.9 423.8h69.8v9.6h-69.8z"/>
				</g>
				<g id="Layer">
					<path id="Layer" fill-rule="evenodd" class="s4" d="m441.8 433.5h-70v-9.8h70zm-69.7-0.3h69.5v-9.3h-69.5z"/>
				</g>
			</g>
			<g id="Layer">
				<g id="Layer">
					<path id="Layer" class="s4" d="m378.4 430.2l10 49.5h37.2l9.7-46.3z"/>
				</g>
			</g>
			<g id="Layer">
				<g id="Layer">
					<path id="Layer" class="s9" d="m378.4 475l5.4 7.4h45.1l6.4-7.4z"/>
				</g>
			</g>
			<g id="Layer">
				<g id="Layer">
					<g id="Layer">
						<path id="Layer" class="s4" d="m404.2 431.6c-0.1 0-0.3-22.9-0.4-51.2-0.1-28.4 0-51.3 0.1-51.3 0.1 0 0.3 22.9 0.4 51.3 0.1 28.3 0 51.2-0.1 51.2z"/>
					</g>
				</g>
			</g>
			<g id="Layer">
				<g id="Layer">
					<g id="Layer">
						<path id="Layer" class="s4" d="m419.7 374.2q0.1 0-0.2 0.5-0.2 0.6-0.6 1.5-0.2 0.5-0.4 1.1-0.2 0.6-0.5 1.3-0.3 0.7-0.5 1.5c-0.2 0.5-0.4 1.1-0.6 1.7-0.7 2.3-1.3 5.3-1.9 8.5-0.5 3.3-0.9 6.9-1.1 10.7-0.3 7.6 0.1 14.5 0.6 19.5 0.2 2.5 0.4 4.5 0.6 5.9q0.1 1 0.2 1.6 0 0.6 0 0.6 0 0-0.1-0.6-0.1-0.6-0.3-1.6c-0.2-1.4-0.5-3.4-0.8-5.9-0.5-4.9-1-11.9-0.7-19.5 0.2-3.9 0.6-7.5 1.1-10.8 0.7-3.2 1.3-6.2 2.1-8.5 0.2-0.6 0.4-1.2 0.6-1.7q0.3-0.8 0.5-1.5 0.3-0.7 0.5-1.3 0.3-0.6 0.5-1.1 0.5-0.9 0.8-1.4 0.2-0.5 0.2-0.5z"/>
					</g>
				</g>
			</g>
			<g id="Layer">
				<g id="Layer">
					<g id="Layer">
						<path id="Layer" class="s4" d="m417.9 355.6q0.1 0-0.2 0.8-0.2 0.8-0.7 2.1-0.2 0.7-0.5 1.5-0.3 0.9-0.6 1.9c-0.4 1.3-0.9 2.8-1.3 4.5q-0.3 1.3-0.7 2.7-0.3 1.4-0.6 2.9c-0.5 2-0.9 4.2-1.3 6.4-0.8 4.6-1.5 9.6-1.9 14.9-0.5 5.4-0.7 10.4-0.7 15.1-0.1 4.6 0 8.8 0.2 12.2 0 1.8 0.2 3.4 0.3 4.8q0.1 2.1 0.2 3.5 0.1 1.4 0.2 2.3 0 0.7 0 0.8 0 0-0.1-0.8-0.1-0.9-0.3-2.3-0.2-1.4-0.3-3.5c-0.1-1.4-0.3-3-0.4-4.7-0.2-3.5-0.3-7.7-0.3-12.3 0-4.7 0.2-9.8 0.7-15.1 0.4-5.3 1.1-10.4 1.9-15 0.5-2.2 0.8-4.4 1.4-6.4q0.3-1.5 0.6-2.9 0.4-1.4 0.8-2.7c0.4-1.7 0.9-3.2 1.3-4.5q0.4-1 0.6-1.8 0.4-0.9 0.6-1.6 0.5-1.3 0.8-2.1 0.3-0.7 0.4-0.7z"/>
					</g>
				</g>
			</g>
			<g id="Layer">
				<g id="Layer">
					<g id="Layer">
						<path id="Layer" class="s4" d="m399.8 435.7q0 0-0.1-0.3 0-0.3 0-0.8-0.1-1.1-0.2-3c-0.2-2.7-0.4-6.5-0.7-11.2-0.6-9.4-1.5-22.5-3.1-36.8-0.8-7.2-1.7-14-2.7-20.2-0.5-3-1-6-1.6-8.7-0.4-2.7-1-5.3-1.5-7.6-0.4-2.3-0.9-4.4-1.3-6.2q-0.7-2.8-1.2-4.7-0.4-1.9-0.7-3-0.1-0.4-0.2-0.7 0-0.3 0-0.3 0 0 0.1 0.3 0.1 0.3 0.2 0.7 0.3 1.1 0.8 3 0.6 1.9 1.2 4.6c0.5 1.8 1 3.9 1.5 6.2 0.5 2.4 1 4.9 1.5 7.6 0.6 2.7 1.1 5.7 1.6 8.8 1 6.1 2 13 2.8 20.1 1.6 14.4 2.4 27.4 2.9 36.9 0.3 4.7 0.5 8.5 0.6 11.2q0 1.9 0.1 3 0 0.5 0 0.8 0 0.3 0 0.3z"/>
					</g>
				</g>
			</g>
			<g id="Layer">
				<g id="Layer">
					<path id="Layer" class="s15" d="m403.6 340.1c-0.3-3.2-3.6-5.7-6.8-5.7-3.3 0-6.3 1.9-8.3 4.5-2 2.6-3.1 5.7-4 8.9-2.2 7.6-3.4 15.7-2.5 23.6 0.9 7.9 4.2 15.7 9.8 21.3 1 0.9 2.2 1.8 3.4 1.5 0.7-0.1 1.3-0.6 1.8-1.1 11.2-10 17.6-25.1 17.2-40.2-0.1-3-0.5-6.1-2.2-8.6-1.7-2.5-5.5-5.2-8.4-4.2z"/>
				</g>
			</g>
			<g id="Layer">
				<g id="Layer">
					<g id="Layer">
						<path id="Layer" class="s15" d="m379.2 314.1q-2.3 4.2-4.6 8.3c-0.1 0.2-0.2 0.4-0.4 0.4-0.3 0.1-0.4-0.2-0.6-0.4q-6.1-9.3-12.1-18.6l2.8-1.6z"/>
					</g>
				</g>
				<g id="Layer" style="opacity: .2">
					<g id="Layer">
						<g id="Layer">
							<path id="Layer" class="s16" d="m379.2 314.1q-2.3 4.2-4.6 8.3c-0.1 0.2-0.2 0.4-0.4 0.4-0.3 0.1-0.4-0.2-0.6-0.4q-6.1-9.3-12.1-18.6l2.8-1.6z"/>
						</g>
					</g>
				</g>
				<g id="Layer">
					<g id="Layer">
						<path id="Layer" class="s15" d="m403.9 329.1q-20.7-12.2-41.5-24.5c-0.4-0.2-0.9-0.5-1-1-0.1-0.6 0.3-1.2 0.8-1.7 5.7-5.8 13.9-9.3 22.1-8.7 8.2 0.6 16.1 5.3 20.1 12.5 4 7.2 4.1 16.6-0.5 23.4z"/>
					</g>
				</g>
				<g id="Layer">
					<g id="Layer">
						<g id="Layer">
							<path id="Layer" class="s4" d="m368.4 296.8q0 0 0.6-0.1c0.3 0 0.8 0 1.5 0 1.4-0.1 3.4 0 5.8 0.4 2.4 0.4 5.2 1.2 8.2 2.5 2.9 1.3 6 3.2 8.8 5.7 2.7 2.5 4.9 5.4 6.5 8.2 1.6 2.8 2.7 5.6 3.3 7.9 0.7 2.4 0.9 4.3 1 5.7 0.1 0.7 0.1 1.2 0.1 1.6q0 0.5 0 0.5c0 0-0.1-0.7-0.2-2.1-0.2-1.3-0.5-3.3-1.2-5.6-1.3-4.6-4.4-10.8-9.9-15.8-5.5-5-12-7.4-16.7-8.2-2.4-0.5-4.3-0.6-5.7-0.6-1.3-0.1-2.1 0-2.1-0.1z"/>
						</g>
					</g>
				</g>
				<g id="Layer">
					<g id="Layer">
						<g id="Layer">
							<path id="Layer" class="s4" d="m398.3 312.2c0 0.1-0.8 0.4-2.1 1-1.3 0.5-3.2 1.1-5.2 1.8-2.1 0.7-4 1.2-5.4 1.5-1.4 0.4-2.2 0.5-2.2 0.4-0.1 0 0.8-0.3 2.1-0.7 1.6-0.5 3.3-1.1 5.3-1.7 2-0.6 3.8-1.2 5.3-1.7 1.3-0.4 2.2-0.7 2.2-0.6z"/>
						</g>
					</g>
				</g>
				<g id="Layer">
					<g id="Layer">
						<g id="Layer">
							<path id="Layer" class="s4" d="m391.8 294.7c0.1 0 0.4 2 0.5 4.6 0 2.6-0.2 4.6-0.3 4.6-0.1 0-0.2-2-0.2-4.6-0.1-2.5-0.2-4.6 0-4.6z"/>
						</g>
					</g>
				</g>
				<g id="Layer">
					<g id="Layer">
						<g id="Layer">
							<path id="Layer" class="s4" d="m362.1 304.2c-0.1-0.1 1.1-0.5 3-1.1 1.9-0.6 4.5-1.3 7.4-2 2.9-0.7 5.6-1.3 7.6-1.6 1.9-0.3 3.1-0.5 3.1-0.4 0 0-1.2 0.3-3.1 0.7-1.9 0.5-4.6 1.1-7.5 1.8-2.9 0.7-5.5 1.3-7.4 1.8-1.9 0.5-3.1 0.8-3.1 0.8z"/>
						</g>
					</g>
				</g>
			</g>
			<g id="Layer">
				<g id="Layer">
					<g id="Layer">
						<path id="Layer" class="s15" d="m384.8 332.4c-3.6-2.7-7.4-3.2-11.8-3-4.5 0.2-8.9 1.5-13 3.3-7 3.1-13.5 7.6-17.7 14-4.2 6.4-5.6 14.8-2.5 21.8 0.3 0.7 0.7 1.4 1.4 1.7 0.7 0.3 1.6 0.1 2.3-0.2 8-2.6 16-5.2 23.3-9.2 7.3-4.1 14-9.8 17.9-17.1 1-1.8 1.8-3.7 1.9-5.7 0.2-2-0.4-4.1-1.8-5.6z"/>
					</g>
				</g>
				<g id="Layer">
					<g id="Layer">
						<g id="Layer">
							<path id="Layer" class="s4" d="m384.9 331.6q0 0-0.6 0.2-0.7 0.3-1.7 0.6-0.5 0.2-1.2 0.4-0.6 0.3-1.4 0.6c-1 0.4-2.2 0.8-3.4 1.4q-0.9 0.4-2 0.9c-0.6 0.3-1.3 0.6-2 1-1.5 0.7-2.9 1.6-4.5 2.5-3 2-6.3 4.3-9.4 7-3.1 2.8-5.8 5.7-8.1 8.5-1.1 1.4-2.2 2.7-3.1 4.1-0.5 0.6-0.9 1.3-1.3 1.9q-0.6 0.9-1.1 1.8c-0.8 1.2-1.3 2.3-1.9 3.2q-0.4 0.7-0.7 1.3-0.3 0.7-0.6 1.2-0.4 1-0.7 1.6-0.3 0.5-0.3 0.5-0.1 0 0.2-0.6 0.2-0.6 0.7-1.6 0.2-0.5 0.5-1.2 0.3-0.6 0.7-1.3c0.5-1 1-2.1 1.7-3.3q0.6-0.8 1.2-1.8c0.3-0.7 0.8-1.3 1.3-2 0.8-1.3 1.9-2.7 3-4.1 2.3-2.8 5-5.8 8.2-8.5 3.1-2.8 6.4-5.1 9.5-7 1.5-1 3-1.9 4.5-2.6 0.7-0.3 1.4-0.7 2.1-1q1-0.4 1.9-0.9c1.3-0.5 2.5-0.9 3.5-1.3q0.8-0.3 1.4-0.5 0.7-0.2 1.3-0.4 1-0.3 1.6-0.5 0.6-0.1 0.7-0.1z"/>
						</g>
					</g>
				</g>
				<g id="Layer">
					<g id="Layer">
						<g id="Layer">
							<path id="Layer" class="s4" d="m357 346.7c0 0.1-3.9 1.4-8.7 2.8-4.8 1.4-8.8 2.4-8.8 2.3 0-0.1 3.8-1.4 8.7-2.8 4.8-1.4 8.7-2.4 8.8-2.3z"/>
						</g>
					</g>
				</g>
				<g id="Layer">
					<g id="Layer">
						<g id="Layer">
							<path id="Layer" class="s4" d="m356.6 365.8c0 0-0.1-1-0.2-2.7 0-1.6 0-4 0.1-6.5 0-2.6 0.2-4.9 0.3-6.5 0.1-1.7 0.3-2.7 0.3-2.7 0.1 0 0.1 1 0.1 2.7-0.1 1.8-0.2 4.1-0.2 6.5-0.1 2.5-0.2 4.7-0.2 6.5-0.1 1.7-0.1 2.7-0.2 2.7z"/>
						</g>
					</g>
				</g>
				<g id="Layer">
					<g id="Layer">
						<g id="Layer">
							<path id="Layer" class="s4" d="m373 357.5c-0.1 0-0.5-4.7-0.9-10.5-0.4-5.8-0.7-10.5-0.5-10.5 0.1 0 0.6 4.7 1 10.5 0.4 5.8 0.6 10.5 0.4 10.5z"/>
						</g>
					</g>
				</g>
				<g id="Layer">
					<g id="Layer">
						<g id="Layer">
							<path id="Layer" class="s4" d="m352.6 336c0-0.1 1.1-0.1 2.8-0.1 1.7 0 4.1 0.1 6.7 0.2 2.6 0.1 5 0.2 6.7 0.3 1.7 0.1 2.8 0.2 2.8 0.2-0.1 0.1-1.1 0.1-2.8 0.1-1.7 0-4.1 0-6.7-0.1-2.6-0.1-5-0.2-6.7-0.3-1.7-0.1-2.8-0.2-2.8-0.3z"/>
						</g>
					</g>
				</g>
			</g>
			<g id="Layer">
				<g id="Layer">
					<g id="Layer">
						<path id="Layer" class="s4" d="m393.6 394.9q0 0 0-0.5-0.1-0.7-0.1-1.7c-0.1-1.4-0.1-3.4 0-6 0-2.5 0.2-5.5 0.5-8.9 0.3-3.3 0.8-6.9 1.4-10.8 0.7-3.8 1.5-7.4 2.4-10.6 0.9-3.2 1.7-6.1 2.6-8.5 0.8-2.4 1.5-4.3 2.1-5.6q0.4-1 0.6-1.5 0.2-0.6 0.3-0.6 0 0.1-0.2 0.6-0.2 0.6-0.5 1.5c-0.5 1.4-1.2 3.3-2 5.7-0.8 2.4-1.6 5.3-2.5 8.5-0.8 3.3-1.6 6.8-2.3 10.6-0.6 3.8-1.1 7.5-1.5 10.8-0.3 3.3-0.5 6.3-0.6 8.8-0.1 2.6-0.1 4.6-0.1 6q0 1 0 1.7-0.1 0.5-0.1 0.5z"/>
					</g>
				</g>
			</g>
			<g id="Layer">
				<g id="Layer">
					<g id="Layer">
						<path id="Layer" class="s4" d="m395.8 366.6c0 0.1-0.6 0.8-1.7 1.8-1 1.1-2.5 2.6-4.3 4.1-1.7 1.5-3.4 2.8-4.6 3.7-1.2 1-1.9 1.5-2 1.5 0-0.1 0.7-0.7 1.8-1.7 1.3-1.1 2.8-2.4 4.5-3.9 1.6-1.5 3.1-2.8 4.4-3.9 1.1-1 1.9-1.6 1.9-1.6z"/>
					</g>
				</g>
			</g>
			<g id="Layer">
				<g id="Layer">
					<g id="Layer">
						<path id="Layer" class="s4" d="m408.9 377.2c0 0-0.7-0.9-1.7-2.4-1.2-1.7-2.6-3.7-4.1-6-1.6-2.3-3.1-4.3-4.2-5.9-1.1-1.6-1.7-2.5-1.7-2.5 0.1-0.1 0.8 0.8 2 2.3 1.1 1.4 2.7 3.5 4.3 5.8 1.6 2.3 3 4.5 4 6.1 0.9 1.6 1.5 2.6 1.4 2.6z"/>
					</g>
				</g>
			</g>
			<g id="Layer">
				<g id="Layer">
					<g id="Layer">
						<path id="Layer" class="s4" d="m402.1 343.9c0 0.2-4.3 3.1-9.8 6.6-5.4 3.5-9.9 6.3-10 6.1-0.1-0.1 4.3-3 9.7-6.5 5.5-3.5 10-6.3 10.1-6.2z"/>
					</g>
				</g>
			</g>
			<g id="Layer">
				<g id="Layer">
					<g id="Layer">
						<path id="Layer" class="s4" d="m414.3 357.2c0 0.1-3-2.6-6.5-6.1-3.6-3.4-6.4-6.3-6.3-6.4 0.1-0.1 3.1 2.6 6.6 6.1 3.5 3.4 6.3 6.3 6.2 6.4z"/>
					</g>
				</g>
			</g>
			<g id="Layer">
				<g id="Layer">
					<g id="Layer">
						<path id="Layer" class="s15" d="m417.4 357l3.8-0.4c2.6-0.2 5.2-1 7.5-2.3 1.2-0.6 2.3-1.2 3.6-1.7 4.6-1.9 9.8-1.6 14.7-1.8 8.2-0.4 16.2-2.5 23.5-6 0.5-0.2 0.8-0.5 1.1-1 0.7-1.4-0.7-2.6-1.9-3.4-6.3-3.8-12.7-7.8-19.9-9.7-7.2-1.9-15.3-1.6-21.4 2.6-7.1 4.9-9.7 15-11 23.7z"/>
					</g>
				</g>
				<g id="Layer">
					<g id="Layer">
						<g id="Layer">
							<path id="Layer" class="s4" d="m471.7 343.4q-0.1 0-0.7-0.3-0.7-0.4-1.8-0.9c-1.5-0.8-3.7-2-6.5-3.4-2.8-1.3-6.2-2.8-10.2-3.9-3.9-1.1-8.4-1.7-13.1-1.1-4.7 0.7-9 2.5-12 5.2-3 2.7-4.9 6-6.2 8.8-1.3 2.8-2.2 5.1-2.7 6.8q-0.5 1.2-0.7 1.9-0.3 0.6-0.3 0.6 0 0 0.2-0.7 0.2-0.7 0.6-1.9c0.5-1.6 1.3-4 2.5-6.9 1.3-2.8 3.2-6.2 6.3-9 3.1-2.8 7.5-4.6 12.2-5.3 4.8-0.6 9.4 0 13.4 1.2 3.9 1.1 7.3 2.6 10.1 4 2.8 1.4 5 2.6 6.5 3.5q1.1 0.6 1.8 1 0.6 0.4 0.6 0.4z"/>
						</g>
					</g>
				</g>
				<g id="Layer">
					<g id="Layer">
						<g id="Layer">
							<path id="Layer" class="s4" d="m462.7 348.2c-0.1 0.1-5-3-11-7.1-5.9-4-10.7-7.3-10.6-7.4 0-0.2 4.9 3 10.9 7 6 4.1 10.7 7.4 10.7 7.5z"/>
						</g>
					</g>
				</g>
				<g id="Layer">
					<g id="Layer">
						<g id="Layer">
							<path id="Layer" class="s4" d="m458 333.2c0 0.1-1.7 0.6-3.9 0.8-2.1 0.2-3.9 0-3.9-0.1 0-0.1 1.8-0.2 3.9-0.4 2.1-0.2 3.8-0.5 3.9-0.3z"/>
						</g>
					</g>
				</g>
				<g id="Layer">
					<g id="Layer">
						<g id="Layer">
							<path id="Layer" class="s4" d="m436 329.3c0.1 0-0.6 1.5-1.6 3.2-1 1.7-1.9 3-2 2.9-0.2 0 0.6-1.5 1.6-3.2 1-1.7 1.9-3 2-2.9z"/>
						</g>
					</g>
				</g>
				<g id="Layer">
					<g id="Layer">
						<g id="Layer">
							<path id="Layer" class="s4" d="m440.4 351.1c0 0.1-0.9-0.4-2.4-1.3-1.4-0.8-3.3-2.1-5.3-3.6-2.1-1.5-3.9-2.9-5.2-3.9-1.3-1-2-1.7-2-1.7 0-0.1 0.9 0.5 2.2 1.4 1.5 1.1 3.3 2.4 5.3 3.8 2 1.5 3.9 2.8 5.2 3.7 1.4 1 2.2 1.5 2.2 1.6z"/>
						</g>
					</g>
				</g>
			</g>
			<g id="Layer">
				<g id="Layer">
					<g id="Layer">
						<path id="Layer" class="s15" d="m423 372.9c-3.6-1-7.9 2.5-8.6 6.1-0.7 3.6 0.6 7.3 2.2 10.7 3.5 7.3 8.4 14.2 14.8 19.3 6.4 5.1 14.4 8.3 22.5 8.3-1.5-7 0.4-14.3-0.4-21.5-0.7-6.2-3.6-12.1-8.1-16.5-4.4-4.4-10.4-7.3-16.6-7.9-2.3-0.3-4.9-0.6-5.8 1.5z"/>
					</g>
				</g>
				<g id="Layer">
					<g id="Layer">
						<g id="Layer">
							<path id="Layer" class="s4" d="m453.9 417.3q0 0-0.5-0.2c-0.3-0.2-0.8-0.5-1.3-0.9-1.1-0.9-2.4-2.5-3.5-4.8-0.6-1.1-1.2-2.3-1.9-3.6q-0.9-2-1.9-4.2c-0.7-1.5-1.4-3.1-2.3-4.6q-1.4-2.2-3.3-4.4c-2.4-2.9-5.1-5.3-7.3-7.7-2.3-2.4-4.2-4.7-5.6-6.7-1.4-2.1-2.3-4-2.8-5.3q-0.3-1-0.4-1.5-0.2-0.5-0.1-0.5c0-0.1 0.2 0.7 0.7 2 0.6 1.2 1.4 3 2.9 5.1 1.4 2 3.3 4.2 5.6 6.6 2.3 2.3 4.9 4.8 7.4 7.7q1.9 2.2 3.3 4.5c0.9 1.5 1.7 3.1 2.3 4.6q1 2.2 1.9 4.2c0.6 1.4 1.2 2.6 1.8 3.7 1.1 2.2 2.3 3.8 3.3 4.7 1.1 0.9 1.8 1.2 1.7 1.3z"/>
						</g>
					</g>
				</g>
				<g id="Layer">
					<g id="Layer">
						<g id="Layer">
							<path id="Layer" class="s4" d="m435.5 411.5c-0.1 0 0-1 0.3-2.4 0.3-1.5 0.7-3.5 1.4-5.7 0.6-2.2 1.2-4.2 1.8-5.6 0.5-1.4 0.9-2.2 1-2.2 0 0-0.2 0.9-0.7 2.3-0.4 1.5-1 3.4-1.7 5.6-0.6 2.2-1.1 4.2-1.4 5.6-0.4 1.5-0.7 2.4-0.7 2.4z"/>
						</g>
					</g>
				</g>
				<g id="Layer">
					<g id="Layer">
						<g id="Layer">
							<path id="Layer" class="s4" d="m453.3 394.3c-0.1 0-1-0.2-2.5-0.6-1.6-0.4-3.7-1-6.1-1.5-2.3-0.5-4.5-1-6.1-1.2-1.5-0.3-2.5-0.5-2.5-0.6 0-0.1 1 0 2.6 0.2 1.6 0.2 3.8 0.6 6.1 1.1 2.4 0.5 4.5 1.2 6.1 1.6 1.5 0.5 2.4 0.9 2.4 1z"/>
						</g>
					</g>
				</g>
				<g id="Layer">
					<g id="Layer">
						<g id="Layer">
							<path id="Layer" class="s4" d="m422.2 399.3c0-0.1 0.1-1.1 0.4-2.8 0.3-1.7 0.8-4.1 1.5-6.6 0.7-2.6 1.4-4.9 1.9-6.5 0.6-1.7 1-2.7 1.1-2.6 0 0-0.3 1-0.7 2.7-0.5 1.6-1.2 3.9-1.8 6.5-0.7 2.5-1.2 4.9-1.6 6.5-0.4 1.7-0.7 2.8-0.8 2.8z"/>
						</g>
					</g>
				</g>
				<g id="Layer">
					<g id="Layer">
						<g id="Layer">
							<path id="Layer" class="s4" d="m445.1 379.3c0 0.1-4.5-0.3-10-0.8-5.5-0.6-9.9-1.2-9.9-1.3 0-0.2 4.5 0.2 10 0.8 5.5 0.5 9.9 1.1 9.9 1.3z"/>
						</g>
					</g>
				</g>
			</g>
			<g id="Layer">
				<g id="Layer">
					<g id="Layer">
						<path id="Layer" class="s9" d="m441.8 433.3c0 0.2-15.7 0.3-35 0.3-19.3 0-35-0.1-35-0.3 0-0.1 15.7-0.2 35-0.2 19.3 0 35 0.1 35 0.2z"/>
					</g>
				</g>
			</g>
			<g id="Layer">
				<g id="Layer">
					<g id="Layer">
						<path id="Layer" class="s9" d="m430.9 453.5c0 0.1-10.5 0.2-23.6 0.2-13 0-23.5-0.1-23.5-0.2 0-0.2 10.5-0.3 23.5-0.3 13.1 0 23.6 0.1 23.6 0.3z"/>
					</g>
				</g>
			</g>
			<g id="Layer">
				<g id="Layer">
					<g id="Layer">
						<path id="Layer" class="s9" d="m431.3 456.4c0 0.1-10.5 0.2-23.6 0.2-13 0-23.5-0.1-23.5-0.2 0-0.2 10.5-0.3 23.5-0.3 13.1 0 23.6 0.1 23.6 0.3z"/>
					</g>
				</g>
			</g>
			<g id="Layer">
				<g id="Layer">
					<g id="Layer">
						<path id="Layer" class="s9" d="m431.3 451.1c0 0.1-10.9 0.3-24.4 0.3-13.4 0-24.4-0.2-24.4-0.3 0-0.1 11-0.2 24.4-0.2 13.5 0 24.4 0.1 24.4 0.2z"/>
					</g>
				</g>
			</g>
		</g>
	</g>
	<g id="Floor">
		<g id="Layer">
			<g id="Layer">
				<path id="Layer" class="s4" d="m461.2 482.4c0 0.1-94.5 0.2-211.2 0.2-116.7 0-211.2-0.1-211.2-0.2 0-0.2 94.5-0.3 211.2-0.3 116.7 0 211.2 0.1 211.2 0.3z"/>
			</g>
		</g>
	</g>
</svg>